<mxfile host="app.diagrams.net" agent="Mozilla/5.0 (Windows NT 10.0; Win64; x64) AppleWebKit/537.36 (KHTML, like Gecko) Chrome/130.0.0.0 Safari/537.36" version="24.8.6">
  <diagram name="Page-1" id="vAO5gQtnY4wo9EOOIm_g">
    <mxGraphModel dx="3090" dy="3472" grid="1" gridSize="8" guides="1" tooltips="1" connect="1" arrows="1" fold="1" page="1" pageScale="1" pageWidth="827" pageHeight="1169" math="0" shadow="0">
      <root>
        <mxCell id="0" />
        <mxCell id="1" parent="0" />
        <mxCell id="V3iPz4OHzq_g8O18MePr-6" value="Product" style="rounded=0;whiteSpace=wrap;html=1;" parent="1" vertex="1">
          <mxGeometry x="168" y="47" width="110" height="42" as="geometry" />
        </mxCell>
        <mxCell id="V3iPz4OHzq_g8O18MePr-8" value="&lt;u&gt;ProductID&lt;/u&gt;" style="ellipse;whiteSpace=wrap;html=1;" parent="1" vertex="1">
          <mxGeometry x="86" y="177" width="88" height="36" as="geometry" />
        </mxCell>
        <mxCell id="V3iPz4OHzq_g8O18MePr-13" value="Picture" style="ellipse;whiteSpace=wrap;html=1;" parent="1" vertex="1">
          <mxGeometry x="-16" y="101" width="88" height="32" as="geometry" />
        </mxCell>
        <mxCell id="V3iPz4OHzq_g8O18MePr-15" value="ProductDescription" style="ellipse;whiteSpace=wrap;html=1;" parent="1" vertex="1">
          <mxGeometry x="8" y="139" width="120" height="36" as="geometry" />
        </mxCell>
        <mxCell id="V3iPz4OHzq_g8O18MePr-17" value="ProductName" style="ellipse;whiteSpace=wrap;html=1;" parent="1" vertex="1">
          <mxGeometry x="-46" y="60" width="120" height="32" as="geometry" />
        </mxCell>
        <mxCell id="V3iPz4OHzq_g8O18MePr-18" value="UnitInStock" style="ellipse;whiteSpace=wrap;html=1;" parent="1" vertex="1">
          <mxGeometry x="164" y="253.5" width="120" height="40" as="geometry" />
        </mxCell>
        <mxCell id="V3iPz4OHzq_g8O18MePr-19" value="Category" style="rounded=0;whiteSpace=wrap;html=1;" parent="1" vertex="1">
          <mxGeometry x="94" y="-392" width="110" height="42" as="geometry" />
        </mxCell>
        <mxCell id="V3iPz4OHzq_g8O18MePr-20" value="&lt;u&gt;Category ID&lt;/u&gt;" style="ellipse;whiteSpace=wrap;html=1;" parent="1" vertex="1">
          <mxGeometry x="16.5" y="-464" width="91" height="32" as="geometry" />
        </mxCell>
        <mxCell id="V3iPz4OHzq_g8O18MePr-21" value="CategoryName" style="ellipse;whiteSpace=wrap;html=1;" parent="1" vertex="1">
          <mxGeometry x="-48" y="-424" width="120" height="40" as="geometry" />
        </mxCell>
        <mxCell id="V3iPz4OHzq_g8O18MePr-22" value="Employee" style="rounded=0;whiteSpace=wrap;html=1;" parent="1" vertex="1">
          <mxGeometry x="544" y="-251" width="110" height="42" as="geometry" />
        </mxCell>
        <mxCell id="V3iPz4OHzq_g8O18MePr-24" value="&lt;u&gt;Employee_ID&lt;/u&gt;" style="ellipse;whiteSpace=wrap;html=1;" parent="1" vertex="1">
          <mxGeometry x="440" y="-304" width="88" height="32" as="geometry" />
        </mxCell>
        <mxCell id="V3iPz4OHzq_g8O18MePr-25" value="Email" style="ellipse;whiteSpace=wrap;html=1;" parent="1" vertex="1">
          <mxGeometry x="548" y="-347" width="88" height="32" as="geometry" />
        </mxCell>
        <mxCell id="V3iPz4OHzq_g8O18MePr-26" value="Password" style="ellipse;whiteSpace=wrap;html=1;" parent="1" vertex="1">
          <mxGeometry x="684" y="-296" width="88" height="32" as="geometry" />
        </mxCell>
        <mxCell id="V3iPz4OHzq_g8O18MePr-27" value="Role" style="ellipse;whiteSpace=wrap;html=1;" parent="1" vertex="1">
          <mxGeometry x="644" y="-336" width="88" height="32" as="geometry" />
        </mxCell>
        <mxCell id="V3iPz4OHzq_g8O18MePr-28" value="Customer" style="rounded=0;whiteSpace=wrap;html=1;" parent="1" vertex="1">
          <mxGeometry x="1078" y="278" width="110" height="42" as="geometry" />
        </mxCell>
        <mxCell id="V3iPz4OHzq_g8O18MePr-29" value="&lt;u&gt;Customer ID&lt;/u&gt;" style="ellipse;whiteSpace=wrap;html=1;" parent="1" vertex="1">
          <mxGeometry x="1088" y="416" width="88" height="36" as="geometry" />
        </mxCell>
        <mxCell id="V3iPz4OHzq_g8O18MePr-30" value="Email" style="ellipse;whiteSpace=wrap;html=1;" parent="1" vertex="1">
          <mxGeometry x="1108" y="374" width="88" height="32" as="geometry" />
        </mxCell>
        <mxCell id="V3iPz4OHzq_g8O18MePr-31" value="Password" style="ellipse;whiteSpace=wrap;html=1;" parent="1" vertex="1">
          <mxGeometry x="1296" y="374" width="88" height="32" as="geometry" />
        </mxCell>
        <mxCell id="V3iPz4OHzq_g8O18MePr-35" value="F_Name" style="ellipse;whiteSpace=wrap;html=1;" parent="1" vertex="1">
          <mxGeometry x="1184" y="454" width="88" height="32" as="geometry" />
        </mxCell>
        <mxCell id="V3iPz4OHzq_g8O18MePr-36" value="L_Name" style="ellipse;whiteSpace=wrap;html=1;" parent="1" vertex="1">
          <mxGeometry x="1280" y="442" width="88" height="32" as="geometry" />
        </mxCell>
        <mxCell id="V3iPz4OHzq_g8O18MePr-44" value="PostalCode" style="ellipse;whiteSpace=wrap;html=1;" parent="1" vertex="1">
          <mxGeometry x="1382" y="160" width="88" height="32" as="geometry" />
        </mxCell>
        <mxCell id="V3iPz4OHzq_g8O18MePr-45" value="Phone_No" style="ellipse;shape=doubleEllipse;margin=3;whiteSpace=wrap;html=1;align=center;" parent="1" vertex="1">
          <mxGeometry x="1329" y="320" width="100" height="40" as="geometry" />
        </mxCell>
        <mxCell id="V3iPz4OHzq_g8O18MePr-47" value="Address" style="ellipse;shape=doubleEllipse;margin=3;whiteSpace=wrap;html=1;align=center;" parent="1" vertex="1">
          <mxGeometry x="1241" y="238" width="100" height="40" as="geometry" />
        </mxCell>
        <mxCell id="V3iPz4OHzq_g8O18MePr-48" value="City" style="ellipse;whiteSpace=wrap;html=1;" parent="1" vertex="1">
          <mxGeometry x="1408" y="220" width="88" height="32" as="geometry" />
        </mxCell>
        <mxCell id="V3iPz4OHzq_g8O18MePr-49" value="District" style="ellipse;whiteSpace=wrap;html=1;" parent="1" vertex="1">
          <mxGeometry x="1400" y="259" width="88" height="32" as="geometry" />
        </mxCell>
        <mxCell id="V3iPz4OHzq_g8O18MePr-50" value="Description" style="ellipse;whiteSpace=wrap;html=1;" parent="1" vertex="1">
          <mxGeometry x="108" y="-448" width="120" height="40" as="geometry" />
        </mxCell>
        <mxCell id="V3iPz4OHzq_g8O18MePr-53" value="Material" style="ellipse;whiteSpace=wrap;html=1;" parent="1" vertex="1">
          <mxGeometry x="86" y="-144" width="72" height="32" as="geometry" />
        </mxCell>
        <mxCell id="V3iPz4OHzq_g8O18MePr-56" value="&lt;p data-pm-slice=&quot;0 0 []&quot;&gt;Date Added&lt;/p&gt;" style="ellipse;whiteSpace=wrap;html=1;" parent="1" vertex="1">
          <mxGeometry x="264" y="-85.5" width="82" height="32" as="geometry" />
        </mxCell>
        <mxCell id="V3iPz4OHzq_g8O18MePr-60" value="&lt;p data-pm-slice=&quot;0 0 []&quot;&gt;Expenses&amp;nbsp;&lt;/p&gt;" style="rounded=0;whiteSpace=wrap;html=1;" parent="1" vertex="1">
          <mxGeometry x="1010.5" y="-219" width="110" height="42" as="geometry" />
        </mxCell>
        <mxCell id="V3iPz4OHzq_g8O18MePr-61" value="Expenses Name" style="ellipse;whiteSpace=wrap;html=1;" parent="1" vertex="1">
          <mxGeometry x="1144" y="-272" width="128" height="36" as="geometry" />
        </mxCell>
        <mxCell id="V3iPz4OHzq_g8O18MePr-62" value="&lt;u&gt;Expenses_ID&lt;/u&gt;" style="ellipse;whiteSpace=wrap;html=1;" parent="1" vertex="1">
          <mxGeometry x="923.5" y="-296" width="104" height="32" as="geometry" />
        </mxCell>
        <mxCell id="V3iPz4OHzq_g8O18MePr-64" value="&lt;p data-pm-slice=&quot;0 0 []&quot;&gt;Description&amp;nbsp;&lt;/p&gt;" style="ellipse;whiteSpace=wrap;html=1;" parent="1" vertex="1">
          <mxGeometry x="1160" y="-216" width="96" height="32" as="geometry" />
        </mxCell>
        <mxCell id="V3iPz4OHzq_g8O18MePr-65" value="Cost" style="ellipse;whiteSpace=wrap;html=1;" parent="1" vertex="1">
          <mxGeometry x="990" y="-328" width="88" height="32" as="geometry" />
        </mxCell>
        <mxCell id="V3iPz4OHzq_g8O18MePr-66" value="Admin" style="rounded=0;whiteSpace=wrap;html=1;" parent="1" vertex="1">
          <mxGeometry x="736.5" y="-109" width="110" height="42" as="geometry" />
        </mxCell>
        <mxCell id="V3iPz4OHzq_g8O18MePr-68" value="&lt;u&gt;ID&lt;/u&gt;" style="ellipse;whiteSpace=wrap;html=1;" parent="1" vertex="1">
          <mxGeometry x="738.5" y="-53.5" width="72" height="32" as="geometry" />
        </mxCell>
        <mxCell id="V3iPz4OHzq_g8O18MePr-69" value="Email" style="ellipse;whiteSpace=wrap;html=1;" parent="1" vertex="1">
          <mxGeometry x="810.5" y="-53.5" width="88" height="32" as="geometry" />
        </mxCell>
        <mxCell id="V3iPz4OHzq_g8O18MePr-70" value="Password" style="ellipse;whiteSpace=wrap;html=1;" parent="1" vertex="1">
          <mxGeometry x="858" y="-85.5" width="88" height="32" as="geometry" />
        </mxCell>
        <mxCell id="V3iPz4OHzq_g8O18MePr-77" value="" style="endArrow=none;html=1;rounded=0;entryX=1;entryY=1;entryDx=0;entryDy=0;" parent="1" source="V3iPz4OHzq_g8O18MePr-6" target="V3iPz4OHzq_g8O18MePr-53" edge="1">
          <mxGeometry width="50" height="50" relative="1" as="geometry">
            <mxPoint x="240" y="56" as="sourcePoint" />
            <mxPoint x="194" y="96" as="targetPoint" />
          </mxGeometry>
        </mxCell>
        <mxCell id="V3iPz4OHzq_g8O18MePr-79" value="" style="endArrow=none;html=1;rounded=0;entryX=0.5;entryY=1;entryDx=0;entryDy=0;exitX=0.75;exitY=0;exitDx=0;exitDy=0;" parent="1" source="V3iPz4OHzq_g8O18MePr-6" target="V3iPz4OHzq_g8O18MePr-56" edge="1">
          <mxGeometry width="50" height="50" relative="1" as="geometry">
            <mxPoint x="238" y="32" as="sourcePoint" />
            <mxPoint x="288" y="-18" as="targetPoint" />
          </mxGeometry>
        </mxCell>
        <mxCell id="V3iPz4OHzq_g8O18MePr-80" value="" style="endArrow=none;html=1;rounded=0;entryX=0.296;entryY=0.945;entryDx=0;entryDy=0;exitX=0.597;exitY=0.008;exitDx=0;exitDy=0;exitPerimeter=0;entryPerimeter=0;" parent="1" source="V3iPz4OHzq_g8O18MePr-6" target="ipskiCv4YRPe0tZs55r1-27" edge="1">
          <mxGeometry width="50" height="50" relative="1" as="geometry">
            <mxPoint x="280" y="72" as="sourcePoint" />
            <mxPoint x="246.60800000000017" y="-121.98399999999992" as="targetPoint" />
          </mxGeometry>
        </mxCell>
        <mxCell id="V3iPz4OHzq_g8O18MePr-81" value="" style="endArrow=none;html=1;rounded=0;entryX=1;entryY=0.5;entryDx=0;entryDy=0;exitX=0.299;exitY=-0.015;exitDx=0;exitDy=0;exitPerimeter=0;" parent="1" source="V3iPz4OHzq_g8O18MePr-6" target="B9aOX_zflv0vr0t4o1Av-19" edge="1">
          <mxGeometry width="50" height="50" relative="1" as="geometry">
            <mxPoint x="168" y="56" as="sourcePoint" />
            <mxPoint x="112.24600802089708" y="-81.72874399407397" as="targetPoint" />
          </mxGeometry>
        </mxCell>
        <mxCell id="V3iPz4OHzq_g8O18MePr-82" value="" style="endArrow=none;html=1;rounded=0;entryX=0.94;entryY=0.685;entryDx=0;entryDy=0;exitX=0.162;exitY=-0.002;exitDx=0;exitDy=0;exitPerimeter=0;entryPerimeter=0;" parent="1" source="V3iPz4OHzq_g8O18MePr-6" target="B9aOX_zflv0vr0t4o1Av-18" edge="1">
          <mxGeometry width="50" height="50" relative="1" as="geometry">
            <mxPoint x="224" y="146" as="sourcePoint" />
            <mxPoint x="108.00000000000068" y="-53.5" as="targetPoint" />
          </mxGeometry>
        </mxCell>
        <mxCell id="V3iPz4OHzq_g8O18MePr-83" value="" style="endArrow=none;html=1;rounded=0;exitX=1;exitY=0.5;exitDx=0;exitDy=0;entryX=0;entryY=0.25;entryDx=0;entryDy=0;" parent="1" source="V3iPz4OHzq_g8O18MePr-17" target="V3iPz4OHzq_g8O18MePr-6" edge="1">
          <mxGeometry width="50" height="50" relative="1" as="geometry">
            <mxPoint x="160" y="120" as="sourcePoint" />
            <mxPoint x="210" y="70" as="targetPoint" />
          </mxGeometry>
        </mxCell>
        <mxCell id="V3iPz4OHzq_g8O18MePr-84" value="" style="endArrow=none;html=1;rounded=0;exitX=1;exitY=0.5;exitDx=0;exitDy=0;entryX=0.5;entryY=1;entryDx=0;entryDy=0;" parent="1" source="V3iPz4OHzq_g8O18MePr-8" target="V3iPz4OHzq_g8O18MePr-6" edge="1">
          <mxGeometry width="50" height="50" relative="1" as="geometry">
            <mxPoint x="224" y="146" as="sourcePoint" />
            <mxPoint x="274" y="96" as="targetPoint" />
          </mxGeometry>
        </mxCell>
        <mxCell id="V3iPz4OHzq_g8O18MePr-85" value="" style="endArrow=none;html=1;rounded=0;entryX=0.957;entryY=0.701;entryDx=0;entryDy=0;entryPerimeter=0;exitX=0;exitY=0;exitDx=0;exitDy=0;" parent="1" source="V3iPz4OHzq_g8O18MePr-6" target="ipskiCv4YRPe0tZs55r1-28" edge="1">
          <mxGeometry width="50" height="50" relative="1" as="geometry">
            <mxPoint x="147" y="64" as="sourcePoint" />
            <mxPoint x="96.59999999999991" y="0.33999999999991815" as="targetPoint" />
          </mxGeometry>
        </mxCell>
        <mxCell id="L6mvIDRMX9fmh9SOG_KI-1" value="" style="endArrow=none;html=1;rounded=0;entryX=0.002;entryY=0.099;entryDx=0;entryDy=0;entryPerimeter=0;exitX=0.966;exitY=0.563;exitDx=0;exitDy=0;exitPerimeter=0;" parent="1" target="V3iPz4OHzq_g8O18MePr-6" edge="1">
          <mxGeometry width="50" height="50" relative="1" as="geometry">
            <mxPoint x="52.46399999999994" y="36.016000000000076" as="sourcePoint" />
            <mxPoint x="370" y="8" as="targetPoint" />
          </mxGeometry>
        </mxCell>
        <mxCell id="L6mvIDRMX9fmh9SOG_KI-3" value="" style="endArrow=none;html=1;rounded=0;exitX=0.977;exitY=0.374;exitDx=0;exitDy=0;exitPerimeter=0;entryX=0;entryY=0.5;entryDx=0;entryDy=0;" parent="1" source="V3iPz4OHzq_g8O18MePr-13" target="V3iPz4OHzq_g8O18MePr-6" edge="1">
          <mxGeometry width="50" height="50" relative="1" as="geometry">
            <mxPoint x="320" y="58" as="sourcePoint" />
            <mxPoint x="370" y="8" as="targetPoint" />
          </mxGeometry>
        </mxCell>
        <mxCell id="L6mvIDRMX9fmh9SOG_KI-4" value="" style="endArrow=none;html=1;rounded=0;exitX=0.936;exitY=0.263;exitDx=0;exitDy=0;exitPerimeter=0;entryX=0;entryY=1;entryDx=0;entryDy=0;" parent="1" source="V3iPz4OHzq_g8O18MePr-15" target="V3iPz4OHzq_g8O18MePr-6" edge="1">
          <mxGeometry width="50" height="50" relative="1" as="geometry">
            <mxPoint x="160" y="154" as="sourcePoint" />
            <mxPoint x="210" y="104" as="targetPoint" />
          </mxGeometry>
        </mxCell>
        <mxCell id="L6mvIDRMX9fmh9SOG_KI-7" value="" style="endArrow=none;html=1;rounded=0;exitX=0.598;exitY=1.006;exitDx=0;exitDy=0;exitPerimeter=0;entryX=0.002;entryY=0.113;entryDx=0;entryDy=0;entryPerimeter=0;" parent="1" source="V3iPz4OHzq_g8O18MePr-20" target="V3iPz4OHzq_g8O18MePr-19" edge="1">
          <mxGeometry width="50" height="50" relative="1" as="geometry">
            <mxPoint x="80" y="-414" as="sourcePoint" />
            <mxPoint x="130" y="-464" as="targetPoint" />
          </mxGeometry>
        </mxCell>
        <mxCell id="L6mvIDRMX9fmh9SOG_KI-8" value="" style="endArrow=none;html=1;rounded=0;exitX=0.75;exitY=0.976;exitDx=0;exitDy=0;entryX=0;entryY=1;entryDx=0;entryDy=0;exitPerimeter=0;" parent="1" source="V3iPz4OHzq_g8O18MePr-21" target="V3iPz4OHzq_g8O18MePr-19" edge="1">
          <mxGeometry width="50" height="50" relative="1" as="geometry">
            <mxPoint x="184" y="-318" as="sourcePoint" />
            <mxPoint x="234" y="-368" as="targetPoint" />
          </mxGeometry>
        </mxCell>
        <mxCell id="L6mvIDRMX9fmh9SOG_KI-9" value="" style="endArrow=none;html=1;rounded=0;exitX=0.5;exitY=1;exitDx=0;exitDy=0;entryX=0.5;entryY=0;entryDx=0;entryDy=0;" parent="1" source="V3iPz4OHzq_g8O18MePr-50" target="V3iPz4OHzq_g8O18MePr-19" edge="1">
          <mxGeometry width="50" height="50" relative="1" as="geometry">
            <mxPoint x="168" y="-310" as="sourcePoint" />
            <mxPoint x="218" y="-360" as="targetPoint" />
          </mxGeometry>
        </mxCell>
        <mxCell id="L6mvIDRMX9fmh9SOG_KI-10" value="" style="endArrow=none;html=1;rounded=0;exitX=0.894;exitY=-0.01;exitDx=0;exitDy=0;entryX=0.072;entryY=0.755;entryDx=0;entryDy=0;entryPerimeter=0;exitPerimeter=0;" parent="1" source="V3iPz4OHzq_g8O18MePr-22" target="V3iPz4OHzq_g8O18MePr-27" edge="1">
          <mxGeometry width="50" height="50" relative="1" as="geometry">
            <mxPoint x="760" y="-211" as="sourcePoint" />
            <mxPoint x="810" y="-261" as="targetPoint" />
          </mxGeometry>
        </mxCell>
        <mxCell id="L6mvIDRMX9fmh9SOG_KI-11" value="" style="endArrow=none;html=1;rounded=0;exitX=0.054;exitY=0.724;exitDx=0;exitDy=0;exitPerimeter=0;entryX=1.007;entryY=0.333;entryDx=0;entryDy=0;entryPerimeter=0;" parent="1" source="V3iPz4OHzq_g8O18MePr-26" target="V3iPz4OHzq_g8O18MePr-22" edge="1">
          <mxGeometry width="50" height="50" relative="1" as="geometry">
            <mxPoint x="643" y="-179" as="sourcePoint" />
            <mxPoint x="693" y="-229" as="targetPoint" />
          </mxGeometry>
        </mxCell>
        <mxCell id="L6mvIDRMX9fmh9SOG_KI-12" value="" style="endArrow=none;html=1;rounded=0;exitX=0.604;exitY=1.018;exitDx=0;exitDy=0;exitPerimeter=0;entryX=0.385;entryY=0.018;entryDx=0;entryDy=0;entryPerimeter=0;" parent="1" source="V3iPz4OHzq_g8O18MePr-25" target="V3iPz4OHzq_g8O18MePr-22" edge="1">
          <mxGeometry width="50" height="50" relative="1" as="geometry">
            <mxPoint x="592" y="-161" as="sourcePoint" />
            <mxPoint x="642" y="-211" as="targetPoint" />
          </mxGeometry>
        </mxCell>
        <mxCell id="L6mvIDRMX9fmh9SOG_KI-13" value="" style="endArrow=none;html=1;rounded=0;exitX=0.905;exitY=0.843;exitDx=0;exitDy=0;exitPerimeter=0;entryX=0;entryY=0.25;entryDx=0;entryDy=0;" parent="1" source="V3iPz4OHzq_g8O18MePr-24" target="V3iPz4OHzq_g8O18MePr-22" edge="1">
          <mxGeometry width="50" height="50" relative="1" as="geometry">
            <mxPoint x="590" y="-173" as="sourcePoint" />
            <mxPoint x="640" y="-223" as="targetPoint" />
          </mxGeometry>
        </mxCell>
        <mxCell id="L6mvIDRMX9fmh9SOG_KI-14" value="" style="endArrow=none;html=1;rounded=0;exitX=0.975;exitY=0.603;exitDx=0;exitDy=0;entryX=-0.001;entryY=0.694;entryDx=0;entryDy=0;entryPerimeter=0;exitPerimeter=0;" parent="1" source="B9aOX_zflv0vr0t4o1Av-10" target="V3iPz4OHzq_g8O18MePr-22" edge="1">
          <mxGeometry width="50" height="50" relative="1" as="geometry">
            <mxPoint x="501.9999999999993" y="-245.99999999999977" as="sourcePoint" />
            <mxPoint x="543" y="-224" as="targetPoint" />
          </mxGeometry>
        </mxCell>
        <mxCell id="L6mvIDRMX9fmh9SOG_KI-15" value="" style="endArrow=none;html=1;rounded=0;exitX=0.73;exitY=0.965;exitDx=0;exitDy=0;entryX=0.202;entryY=0.019;entryDx=0;entryDy=0;exitPerimeter=0;entryPerimeter=0;" parent="1" source="V3iPz4OHzq_g8O18MePr-62" target="V3iPz4OHzq_g8O18MePr-60" edge="1">
          <mxGeometry width="50" height="50" relative="1" as="geometry">
            <mxPoint x="1265.5" y="-233" as="sourcePoint" />
            <mxPoint x="1009.5" y="-203" as="targetPoint" />
          </mxGeometry>
        </mxCell>
        <mxCell id="L6mvIDRMX9fmh9SOG_KI-16" value="" style="endArrow=none;html=1;rounded=0;exitX=0;exitY=0.5;exitDx=0;exitDy=0;entryX=0.869;entryY=-0.01;entryDx=0;entryDy=0;entryPerimeter=0;" parent="1" source="V3iPz4OHzq_g8O18MePr-61" target="V3iPz4OHzq_g8O18MePr-60" edge="1">
          <mxGeometry width="50" height="50" relative="1" as="geometry">
            <mxPoint x="1113.5" y="-177" as="sourcePoint" />
            <mxPoint x="1163.5" y="-227" as="targetPoint" />
          </mxGeometry>
        </mxCell>
        <mxCell id="L6mvIDRMX9fmh9SOG_KI-17" value="" style="endArrow=none;html=1;rounded=0;exitX=0;exitY=0.5;exitDx=0;exitDy=0;entryX=0.986;entryY=0.627;entryDx=0;entryDy=0;entryPerimeter=0;" parent="1" source="V3iPz4OHzq_g8O18MePr-64" target="V3iPz4OHzq_g8O18MePr-60" edge="1">
          <mxGeometry width="50" height="50" relative="1" as="geometry">
            <mxPoint x="1129.5" y="-105" as="sourcePoint" />
            <mxPoint x="1179.5" y="-155" as="targetPoint" />
          </mxGeometry>
        </mxCell>
        <mxCell id="L6mvIDRMX9fmh9SOG_KI-18" value="" style="endArrow=none;html=1;rounded=0;exitX=0.5;exitY=1;exitDx=0;exitDy=0;entryX=0.584;entryY=-0.034;entryDx=0;entryDy=0;entryPerimeter=0;" parent="1" source="V3iPz4OHzq_g8O18MePr-65" target="V3iPz4OHzq_g8O18MePr-60" edge="1">
          <mxGeometry width="50" height="50" relative="1" as="geometry">
            <mxPoint x="1137.5" y="-171" as="sourcePoint" />
            <mxPoint x="1235.5" y="-155" as="targetPoint" />
          </mxGeometry>
        </mxCell>
        <mxCell id="L6mvIDRMX9fmh9SOG_KI-19" value="" style="endArrow=none;html=1;rounded=0;exitX=0.408;exitY=1.036;exitDx=0;exitDy=0;exitPerimeter=0;" parent="1" source="gZLKV1CWDzT5GwPXtefE-5" target="V3iPz4OHzq_g8O18MePr-66" edge="1">
          <mxGeometry width="50" height="50" relative="1" as="geometry">
            <mxPoint x="726.9680000000003" y="-44.832000000000335" as="sourcePoint" />
            <mxPoint x="1011.5" y="-117" as="targetPoint" />
          </mxGeometry>
        </mxCell>
        <mxCell id="L6mvIDRMX9fmh9SOG_KI-20" value="" style="endArrow=none;html=1;rounded=0;exitX=0.613;exitY=-0.001;exitDx=0;exitDy=0;exitPerimeter=0;entryX=0.328;entryY=0.997;entryDx=0;entryDy=0;entryPerimeter=0;" parent="1" source="V3iPz4OHzq_g8O18MePr-68" target="V3iPz4OHzq_g8O18MePr-66" edge="1">
          <mxGeometry width="50" height="50" relative="1" as="geometry">
            <mxPoint x="857.5" y="-51" as="sourcePoint" />
            <mxPoint x="907.5" y="-101" as="targetPoint" />
          </mxGeometry>
        </mxCell>
        <mxCell id="L6mvIDRMX9fmh9SOG_KI-21" value="" style="endArrow=none;html=1;rounded=0;exitX=0.258;exitY=0.064;exitDx=0;exitDy=0;exitPerimeter=0;entryX=0.622;entryY=1.003;entryDx=0;entryDy=0;entryPerimeter=0;" parent="1" source="V3iPz4OHzq_g8O18MePr-69" target="V3iPz4OHzq_g8O18MePr-66" edge="1">
          <mxGeometry width="50" height="50" relative="1" as="geometry">
            <mxPoint x="857.5" y="-51" as="sourcePoint" />
            <mxPoint x="907.5" y="-101" as="targetPoint" />
          </mxGeometry>
        </mxCell>
        <mxCell id="L6mvIDRMX9fmh9SOG_KI-22" value="" style="endArrow=none;html=1;rounded=0;exitX=1.001;exitY=0.846;exitDx=0;exitDy=0;exitPerimeter=0;entryX=0.023;entryY=0.351;entryDx=0;entryDy=0;entryPerimeter=0;" parent="1" source="V3iPz4OHzq_g8O18MePr-66" target="V3iPz4OHzq_g8O18MePr-70" edge="1">
          <mxGeometry width="50" height="50" relative="1" as="geometry">
            <mxPoint x="897.5" y="-51" as="sourcePoint" />
            <mxPoint x="947.5" y="-101" as="targetPoint" />
          </mxGeometry>
        </mxCell>
        <mxCell id="L6mvIDRMX9fmh9SOG_KI-23" value="" style="endArrow=none;html=1;rounded=0;exitX=0.682;exitY=0.062;exitDx=0;exitDy=0;exitPerimeter=0;entryX=0.547;entryY=0.977;entryDx=0;entryDy=0;entryPerimeter=0;" parent="1" source="V3iPz4OHzq_g8O18MePr-35" target="ipskiCv4YRPe0tZs55r1-1" edge="1">
          <mxGeometry width="50" height="50" relative="1" as="geometry">
            <mxPoint x="1340" y="466" as="sourcePoint" />
            <mxPoint x="1196.6399999999999" y="445.37599999999975" as="targetPoint" />
          </mxGeometry>
        </mxCell>
        <mxCell id="L6mvIDRMX9fmh9SOG_KI-24" value="" style="endArrow=none;html=1;rounded=0;exitX=0.281;exitY=0.058;exitDx=0;exitDy=0;exitPerimeter=0;entryX=0.721;entryY=0.921;entryDx=0;entryDy=0;entryPerimeter=0;" parent="1" source="V3iPz4OHzq_g8O18MePr-36" target="ipskiCv4YRPe0tZs55r1-1" edge="1">
          <mxGeometry width="50" height="50" relative="1" as="geometry">
            <mxPoint x="1252" y="458" as="sourcePoint" />
            <mxPoint x="1238.5279999999998" y="445.8560000000002" as="targetPoint" />
          </mxGeometry>
        </mxCell>
        <mxCell id="L6mvIDRMX9fmh9SOG_KI-25" value="" style="endArrow=none;html=1;rounded=0;exitX=0.785;exitY=0.991;exitDx=0;exitDy=0;entryX=0.014;entryY=0.591;entryDx=0;entryDy=0;entryPerimeter=0;exitPerimeter=0;" parent="1" source="V3iPz4OHzq_g8O18MePr-28" target="V3iPz4OHzq_g8O18MePr-31" edge="1">
          <mxGeometry width="50" height="50" relative="1" as="geometry">
            <mxPoint x="1176" y="442" as="sourcePoint" />
            <mxPoint x="1226" y="392" as="targetPoint" />
          </mxGeometry>
        </mxCell>
        <mxCell id="L6mvIDRMX9fmh9SOG_KI-26" value="" style="endArrow=none;html=1;rounded=0;exitX=0.426;exitY=0.047;exitDx=0;exitDy=0;exitPerimeter=0;entryX=0.443;entryY=0.986;entryDx=0;entryDy=0;entryPerimeter=0;" parent="1" source="ipskiCv4YRPe0tZs55r1-1" target="V3iPz4OHzq_g8O18MePr-28" edge="1">
          <mxGeometry width="50" height="50" relative="1" as="geometry">
            <mxPoint x="1219.52" y="416.384" as="sourcePoint" />
            <mxPoint x="1176" y="336" as="targetPoint" />
          </mxGeometry>
        </mxCell>
        <mxCell id="L6mvIDRMX9fmh9SOG_KI-27" value="" style="endArrow=none;html=1;rounded=0;exitX=0.802;exitY=0.119;exitDx=0;exitDy=0;exitPerimeter=0;entryX=0.293;entryY=1.002;entryDx=0;entryDy=0;entryPerimeter=0;" parent="1" source="V3iPz4OHzq_g8O18MePr-30" target="V3iPz4OHzq_g8O18MePr-28" edge="1">
          <mxGeometry width="50" height="50" relative="1" as="geometry">
            <mxPoint x="1144" y="410" as="sourcePoint" />
            <mxPoint x="1194" y="360" as="targetPoint" />
          </mxGeometry>
        </mxCell>
        <mxCell id="L6mvIDRMX9fmh9SOG_KI-28" value="" style="endArrow=none;html=1;rounded=0;exitX=0;exitY=0;exitDx=0;exitDy=0;entryX=0.25;entryY=1;entryDx=0;entryDy=0;" parent="1" source="V3iPz4OHzq_g8O18MePr-29" target="V3iPz4OHzq_g8O18MePr-28" edge="1">
          <mxGeometry width="50" height="50" relative="1" as="geometry">
            <mxPoint x="1096" y="362" as="sourcePoint" />
            <mxPoint x="1146" y="312" as="targetPoint" />
          </mxGeometry>
        </mxCell>
        <mxCell id="L6mvIDRMX9fmh9SOG_KI-30" value="" style="endArrow=none;html=1;rounded=0;entryX=1.004;entryY=0.425;entryDx=0;entryDy=0;entryPerimeter=0;exitX=0.035;exitY=0.331;exitDx=0;exitDy=0;exitPerimeter=0;" parent="1" source="V3iPz4OHzq_g8O18MePr-45" target="V3iPz4OHzq_g8O18MePr-28" edge="1">
          <mxGeometry width="50" height="50" relative="1" as="geometry">
            <mxPoint x="1224" y="340" as="sourcePoint" />
            <mxPoint x="1188" y="287.5" as="targetPoint" />
          </mxGeometry>
        </mxCell>
        <mxCell id="L6mvIDRMX9fmh9SOG_KI-31" value="" style="endArrow=none;html=1;rounded=0;exitX=0.997;exitY=0.126;exitDx=0;exitDy=0;exitPerimeter=0;entryX=0.005;entryY=0.568;entryDx=0;entryDy=0;entryPerimeter=0;" parent="1" source="V3iPz4OHzq_g8O18MePr-28" target="V3iPz4OHzq_g8O18MePr-47" edge="1">
          <mxGeometry width="50" height="50" relative="1" as="geometry">
            <mxPoint x="1185" y="320" as="sourcePoint" />
            <mxPoint x="1235" y="270" as="targetPoint" />
          </mxGeometry>
        </mxCell>
        <mxCell id="L6mvIDRMX9fmh9SOG_KI-32" value="" style="endArrow=none;html=1;rounded=0;exitX=0.903;exitY=0.238;exitDx=0;exitDy=0;exitPerimeter=0;entryX=0.042;entryY=0.702;entryDx=0;entryDy=0;entryPerimeter=0;" parent="1" source="V3iPz4OHzq_g8O18MePr-47" target="V3iPz4OHzq_g8O18MePr-44" edge="1">
          <mxGeometry width="50" height="50" relative="1" as="geometry">
            <mxPoint x="1205.5" y="286" as="sourcePoint" />
            <mxPoint x="1255.5" y="236" as="targetPoint" />
          </mxGeometry>
        </mxCell>
        <mxCell id="L6mvIDRMX9fmh9SOG_KI-33" value="" style="endArrow=none;html=1;rounded=0;entryX=0.103;entryY=0.801;entryDx=0;entryDy=0;entryPerimeter=0;" parent="1" source="V3iPz4OHzq_g8O18MePr-47" target="V3iPz4OHzq_g8O18MePr-49" edge="1">
          <mxGeometry width="50" height="50" relative="1" as="geometry">
            <mxPoint x="1112.5" y="252" as="sourcePoint" />
            <mxPoint x="1162.5" y="202" as="targetPoint" />
          </mxGeometry>
        </mxCell>
        <mxCell id="L6mvIDRMX9fmh9SOG_KI-34" value="" style="endArrow=none;html=1;rounded=0;exitX=1;exitY=0.5;exitDx=0;exitDy=0;entryX=0;entryY=0.5;entryDx=0;entryDy=0;" parent="1" source="V3iPz4OHzq_g8O18MePr-47" target="V3iPz4OHzq_g8O18MePr-48" edge="1">
          <mxGeometry width="50" height="50" relative="1" as="geometry">
            <mxPoint x="1125.5" y="254" as="sourcePoint" />
            <mxPoint x="1175.5" y="204" as="targetPoint" />
          </mxGeometry>
        </mxCell>
        <mxCell id="L6mvIDRMX9fmh9SOG_KI-35" value="Belongs to" style="rhombus;whiteSpace=wrap;html=1;" parent="1" vertex="1">
          <mxGeometry x="145" y="-236" width="102" height="54" as="geometry" />
        </mxCell>
        <mxCell id="L6mvIDRMX9fmh9SOG_KI-36" value="" style="endArrow=none;html=1;rounded=0;exitX=0.5;exitY=0;exitDx=0;exitDy=0;entryX=0.5;entryY=1;entryDx=0;entryDy=0;" parent="1" source="V3iPz4OHzq_g8O18MePr-6" target="L6mvIDRMX9fmh9SOG_KI-35" edge="1">
          <mxGeometry width="50" height="50" relative="1" as="geometry">
            <mxPoint x="328" y="154" as="sourcePoint" />
            <mxPoint x="196" y="-176" as="targetPoint" />
          </mxGeometry>
        </mxCell>
        <mxCell id="L6mvIDRMX9fmh9SOG_KI-37" value="" style="endArrow=none;html=1;rounded=0;entryX=0.5;entryY=0;entryDx=0;entryDy=0;exitX=0.592;exitY=0.948;exitDx=0;exitDy=0;exitPerimeter=0;" parent="1" source="V3iPz4OHzq_g8O18MePr-19" target="L6mvIDRMX9fmh9SOG_KI-35" edge="1">
          <mxGeometry width="50" height="50" relative="1" as="geometry">
            <mxPoint x="272" y="210" as="sourcePoint" />
            <mxPoint x="322" y="160" as="targetPoint" />
          </mxGeometry>
        </mxCell>
        <mxCell id="L6mvIDRMX9fmh9SOG_KI-38" value="Adds" style="rhombus;whiteSpace=wrap;html=1;direction=west;" parent="1" vertex="1">
          <mxGeometry x="912" y="-169" width="48" height="48" as="geometry" />
        </mxCell>
        <mxCell id="L6mvIDRMX9fmh9SOG_KI-39" value="" style="endArrow=none;html=1;rounded=0;exitX=1;exitY=0.5;exitDx=0;exitDy=0;entryX=0.867;entryY=-0.014;entryDx=0;entryDy=0;entryPerimeter=0;" parent="1" source="L6mvIDRMX9fmh9SOG_KI-38" target="V3iPz4OHzq_g8O18MePr-66" edge="1">
          <mxGeometry width="50" height="50" relative="1" as="geometry">
            <mxPoint x="657.5" y="-93" as="sourcePoint" />
            <mxPoint x="715.5" y="-150" as="targetPoint" />
          </mxGeometry>
        </mxCell>
        <mxCell id="L6mvIDRMX9fmh9SOG_KI-40" value="" style="endArrow=none;html=1;rounded=0;exitX=0;exitY=0.5;exitDx=0;exitDy=0;entryX=0;entryY=0.5;entryDx=0;entryDy=0;" parent="1" source="V3iPz4OHzq_g8O18MePr-60" target="L6mvIDRMX9fmh9SOG_KI-38" edge="1">
          <mxGeometry width="50" height="50" relative="1" as="geometry">
            <mxPoint x="497.5" y="-43" as="sourcePoint" />
            <mxPoint x="547.5" y="-93" as="targetPoint" />
          </mxGeometry>
        </mxCell>
        <mxCell id="L6mvIDRMX9fmh9SOG_KI-41" value="" style="endArrow=none;html=1;rounded=0;exitX=0.875;exitY=1.012;exitDx=0;exitDy=0;exitPerimeter=0;entryX=0.5;entryY=0;entryDx=0;entryDy=0;" parent="1" source="V3iPz4OHzq_g8O18MePr-22" target="L6mvIDRMX9fmh9SOG_KI-42" edge="1">
          <mxGeometry width="50" height="50" relative="1" as="geometry">
            <mxPoint x="664" y="-131" as="sourcePoint" />
            <mxPoint x="680" y="-157" as="targetPoint" />
          </mxGeometry>
        </mxCell>
        <mxCell id="L6mvIDRMX9fmh9SOG_KI-42" value="Adds" style="rhombus;whiteSpace=wrap;html=1;" parent="1" vertex="1">
          <mxGeometry x="654" y="-175" width="56" height="44" as="geometry" />
        </mxCell>
        <mxCell id="g5ulkCb6ljAIDOxzEdh5-1" value="" style="endArrow=none;html=1;rounded=0;entryX=0.5;entryY=1;entryDx=0;entryDy=0;exitX=0;exitY=0;exitDx=0;exitDy=0;" parent="1" source="V3iPz4OHzq_g8O18MePr-66" target="L6mvIDRMX9fmh9SOG_KI-42" edge="1">
          <mxGeometry width="50" height="50" relative="1" as="geometry">
            <mxPoint x="705.5" y="-75" as="sourcePoint" />
            <mxPoint x="755.5" y="-125" as="targetPoint" />
          </mxGeometry>
        </mxCell>
        <mxCell id="g5ulkCb6ljAIDOxzEdh5-6" value="Adds" style="rhombus;whiteSpace=wrap;html=1;" parent="1" vertex="1">
          <mxGeometry x="499.5" y="-44" width="56" height="44" as="geometry" />
        </mxCell>
        <mxCell id="g5ulkCb6ljAIDOxzEdh5-7" value="" style="endArrow=none;html=1;rounded=0;entryX=0;entryY=0.5;entryDx=0;entryDy=0;exitX=1;exitY=0.5;exitDx=0;exitDy=0;" parent="1" source="g5ulkCb6ljAIDOxzEdh5-6" target="V3iPz4OHzq_g8O18MePr-66" edge="1">
          <mxGeometry width="50" height="50" relative="1" as="geometry">
            <mxPoint x="456" y="8" as="sourcePoint" />
            <mxPoint x="434" y="-56" as="targetPoint" />
          </mxGeometry>
        </mxCell>
        <mxCell id="g5ulkCb6ljAIDOxzEdh5-8" value="" style="endArrow=none;html=1;rounded=0;entryX=0;entryY=0.5;entryDx=0;entryDy=0;exitX=1;exitY=0.5;exitDx=0;exitDy=0;" parent="1" source="V3iPz4OHzq_g8O18MePr-6" target="g5ulkCb6ljAIDOxzEdh5-6" edge="1">
          <mxGeometry width="50" height="50" relative="1" as="geometry">
            <mxPoint x="440" y="-14" as="sourcePoint" />
            <mxPoint x="490" y="-64" as="targetPoint" />
          </mxGeometry>
        </mxCell>
        <mxCell id="g5ulkCb6ljAIDOxzEdh5-12" value="Gives" style="rhombus;whiteSpace=wrap;html=1;" parent="1" vertex="1">
          <mxGeometry x="372" y="167.5" width="88" height="44" as="geometry" />
        </mxCell>
        <mxCell id="g5ulkCb6ljAIDOxzEdh5-16" value="Has" style="rhombus;whiteSpace=wrap;html=1;" parent="1" vertex="1">
          <mxGeometry x="858.5" y="317" width="96" height="56" as="geometry" />
        </mxCell>
        <mxCell id="g5ulkCb6ljAIDOxzEdh5-17" value="" style="endArrow=none;html=1;rounded=0;exitX=0.812;exitY=1.01;exitDx=0;exitDy=0;entryX=0;entryY=0.5;entryDx=0;entryDy=0;exitPerimeter=0;" parent="1" source="V3iPz4OHzq_g8O18MePr-6" target="g5ulkCb6ljAIDOxzEdh5-12" edge="1">
          <mxGeometry width="50" height="50" relative="1" as="geometry">
            <mxPoint x="608" y="322" as="sourcePoint" />
            <mxPoint x="658" y="272" as="targetPoint" />
          </mxGeometry>
        </mxCell>
        <mxCell id="g5ulkCb6ljAIDOxzEdh5-19" value="" style="endArrow=none;html=1;rounded=0;entryX=0;entryY=0.75;entryDx=0;entryDy=0;exitX=1;exitY=0.5;exitDx=0;exitDy=0;shape=link;" parent="1" source="g5ulkCb6ljAIDOxzEdh5-12" edge="1">
          <mxGeometry width="50" height="50" relative="1" as="geometry">
            <mxPoint x="549.25" y="198" as="sourcePoint" />
            <mxPoint x="649.25" y="280.5" as="targetPoint" />
          </mxGeometry>
        </mxCell>
        <mxCell id="g5ulkCb6ljAIDOxzEdh5-22" value="" style="endArrow=none;html=1;rounded=0;entryX=0;entryY=0.5;entryDx=0;entryDy=0;exitX=1;exitY=0.5;exitDx=0;exitDy=0;" parent="1" source="g5ulkCb6ljAIDOxzEdh5-16" target="V3iPz4OHzq_g8O18MePr-28" edge="1">
          <mxGeometry width="50" height="50" relative="1" as="geometry">
            <mxPoint x="824" y="234" as="sourcePoint" />
            <mxPoint x="874" y="184" as="targetPoint" />
          </mxGeometry>
        </mxCell>
        <mxCell id="g5ulkCb6ljAIDOxzEdh5-24" value="" style="endArrow=none;html=1;rounded=0;entryX=1;entryY=1;entryDx=0;entryDy=0;exitX=0;exitY=0.5;exitDx=0;exitDy=0;" parent="1" source="g5ulkCb6ljAIDOxzEdh5-16" edge="1">
          <mxGeometry width="50" height="50" relative="1" as="geometry">
            <mxPoint x="889.25" y="286" as="sourcePoint" />
            <mxPoint x="759.2499999999991" y="291" as="targetPoint" />
          </mxGeometry>
        </mxCell>
        <mxCell id="g5ulkCb6ljAIDOxzEdh5-25" value="&lt;u&gt;Order_ID&lt;/u&gt;" style="ellipse;whiteSpace=wrap;html=1;" parent="1" vertex="1">
          <mxGeometry x="608" y="179.5" width="88" height="36" as="geometry" />
        </mxCell>
        <mxCell id="g5ulkCb6ljAIDOxzEdh5-28" value="Shoped_&lt;span style=&quot;background-color: initial;&quot;&gt;Date&lt;/span&gt;" style="ellipse;whiteSpace=wrap;html=1;" parent="1" vertex="1">
          <mxGeometry x="696" y="160" width="100" height="32" as="geometry" />
        </mxCell>
        <mxCell id="g5ulkCb6ljAIDOxzEdh5-29" value="Shoped_Time" style="ellipse;whiteSpace=wrap;html=1;" parent="1" vertex="1">
          <mxGeometry x="718" y="199" width="92.5" height="36" as="geometry" />
        </mxCell>
        <mxCell id="g5ulkCb6ljAIDOxzEdh5-30" value="OrderStatus" style="ellipse;whiteSpace=wrap;html=1;" parent="1" vertex="1">
          <mxGeometry x="846.5" y="174" width="88.5" height="31" as="geometry" />
        </mxCell>
        <mxCell id="g5ulkCb6ljAIDOxzEdh5-32" value="" style="endArrow=none;html=1;rounded=0;exitX=0.569;exitY=0.953;exitDx=0;exitDy=0;exitPerimeter=0;entryX=0.299;entryY=-0.011;entryDx=0;entryDy=0;entryPerimeter=0;" parent="1" source="g5ulkCb6ljAIDOxzEdh5-25" edge="1">
          <mxGeometry width="50" height="50" relative="1" as="geometry">
            <mxPoint x="745.25" y="206" as="sourcePoint" />
            <mxPoint x="682.1399999999999" y="248.538" as="targetPoint" />
          </mxGeometry>
        </mxCell>
        <mxCell id="g5ulkCb6ljAIDOxzEdh5-35" value="" style="endArrow=none;html=1;rounded=0;entryX=0.21;entryY=0.889;entryDx=0;entryDy=0;entryPerimeter=0;exitX=0.5;exitY=0;exitDx=0;exitDy=0;" parent="1" target="g5ulkCb6ljAIDOxzEdh5-28" edge="1">
          <mxGeometry width="50" height="50" relative="1" as="geometry">
            <mxPoint x="704.25" y="249" as="sourcePoint" />
            <mxPoint x="795.25" y="156" as="targetPoint" />
          </mxGeometry>
        </mxCell>
        <mxCell id="g5ulkCb6ljAIDOxzEdh5-36" value="" style="endArrow=none;html=1;rounded=0;entryX=0.098;entryY=0.831;entryDx=0;entryDy=0;entryPerimeter=0;exitX=0.75;exitY=0;exitDx=0;exitDy=0;" parent="1" target="g5ulkCb6ljAIDOxzEdh5-29" edge="1">
          <mxGeometry width="50" height="50" relative="1" as="geometry">
            <mxPoint x="731.7500000000005" y="249" as="sourcePoint" />
            <mxPoint x="851.25" y="196" as="targetPoint" />
          </mxGeometry>
        </mxCell>
        <mxCell id="g5ulkCb6ljAIDOxzEdh5-37" value="" style="endArrow=none;html=1;rounded=0;entryX=0;entryY=0.5;entryDx=0;entryDy=0;exitX=1;exitY=0.5;exitDx=0;exitDy=0;" parent="1" target="g5ulkCb6ljAIDOxzEdh5-30" edge="1">
          <mxGeometry width="50" height="50" relative="1" as="geometry">
            <mxPoint x="759.25" y="270" as="sourcePoint" />
            <mxPoint x="851.25" y="220" as="targetPoint" />
          </mxGeometry>
        </mxCell>
        <mxCell id="g5ulkCb6ljAIDOxzEdh5-38" value="" style="endArrow=none;html=1;rounded=0;entryX=1;entryY=0;entryDx=0;entryDy=0;exitX=0;exitY=1;exitDx=0;exitDy=0;" parent="1" target="ipskiCv4YRPe0tZs55r1-2" edge="1">
          <mxGeometry width="50" height="50" relative="1" as="geometry">
            <mxPoint x="649.2500000000005" y="291" as="sourcePoint" />
            <mxPoint x="511.9134863732893" y="375.37430533089855" as="targetPoint" />
          </mxGeometry>
        </mxCell>
        <mxCell id="qKijBsGMD7tkdMQGyjHV-1" value="Cart" style="rounded=0;whiteSpace=wrap;html=1;" parent="1" vertex="1">
          <mxGeometry x="1429" y="14.5" width="110" height="42" as="geometry" />
        </mxCell>
        <mxCell id="qKijBsGMD7tkdMQGyjHV-3" value="Quantity&amp;nbsp;" style="ellipse;whiteSpace=wrap;html=1;" parent="1" vertex="1">
          <mxGeometry x="435" y="308" width="88" height="36" as="geometry" />
        </mxCell>
        <mxCell id="qKijBsGMD7tkdMQGyjHV-8" value="" style="endArrow=none;html=1;rounded=0;entryX=1;entryY=0.5;entryDx=0;entryDy=0;exitX=0;exitY=1;exitDx=0;exitDy=0;" parent="1" target="qKijBsGMD7tkdMQGyjHV-3" edge="1">
          <mxGeometry width="50" height="50" relative="1" as="geometry">
            <mxPoint x="649.2500000000005" y="291" as="sourcePoint" />
            <mxPoint x="699.25" y="393" as="targetPoint" />
          </mxGeometry>
        </mxCell>
        <mxCell id="qKijBsGMD7tkdMQGyjHV-9" value="" style="endArrow=none;html=1;rounded=0;entryX=1;entryY=0.5;entryDx=0;entryDy=0;exitX=0;exitY=1;exitDx=0;exitDy=0;" parent="1" target="B9aOX_zflv0vr0t4o1Av-1" edge="1">
          <mxGeometry width="50" height="50" relative="1" as="geometry">
            <mxPoint x="649.2500000000005" y="291" as="sourcePoint" />
            <mxPoint x="588.75" y="252" as="targetPoint" />
          </mxGeometry>
        </mxCell>
        <mxCell id="qKijBsGMD7tkdMQGyjHV-10" value="Discount" style="ellipse;whiteSpace=wrap;html=1;" parent="1" vertex="1">
          <mxGeometry x="846.5" y="209" width="88.5" height="36" as="geometry" />
        </mxCell>
        <mxCell id="qKijBsGMD7tkdMQGyjHV-11" value="" style="endArrow=none;html=1;rounded=0;entryX=0.016;entryY=0.704;entryDx=0;entryDy=0;exitX=1;exitY=0.75;exitDx=0;exitDy=0;entryPerimeter=0;" parent="1" target="qKijBsGMD7tkdMQGyjHV-10" edge="1">
          <mxGeometry width="50" height="50" relative="1" as="geometry">
            <mxPoint x="759.25" y="280.5" as="sourcePoint" />
            <mxPoint x="901" y="150" as="targetPoint" />
          </mxGeometry>
        </mxCell>
        <mxCell id="qKijBsGMD7tkdMQGyjHV-12" value="DeleveryVia" style="ellipse;whiteSpace=wrap;html=1;" parent="1" vertex="1">
          <mxGeometry x="606" y="396" width="96" height="36" as="geometry" />
        </mxCell>
        <mxCell id="qKijBsGMD7tkdMQGyjHV-14" value="" style="endArrow=none;html=1;rounded=0;entryX=0.5;entryY=0;entryDx=0;entryDy=0;exitX=0.25;exitY=1;exitDx=0;exitDy=0;" parent="1" target="qKijBsGMD7tkdMQGyjHV-12" edge="1">
          <mxGeometry width="50" height="50" relative="1" as="geometry">
            <mxPoint x="676.7500000000005" y="291" as="sourcePoint" />
            <mxPoint x="576" y="405" as="targetPoint" />
          </mxGeometry>
        </mxCell>
        <mxCell id="qKijBsGMD7tkdMQGyjHV-17" value="" style="endArrow=none;html=1;rounded=0;exitX=1;exitY=0.5;exitDx=0;exitDy=0;entryX=0.166;entryY=0.046;entryDx=0;entryDy=0;entryPerimeter=0;" parent="1" source="ipskiCv4YRPe0tZs55r1-14" target="V3iPz4OHzq_g8O18MePr-28" edge="1">
          <mxGeometry width="50" height="50" relative="1" as="geometry">
            <mxPoint x="1019.5" y="398" as="sourcePoint" />
            <mxPoint x="1086" y="328" as="targetPoint" />
          </mxGeometry>
        </mxCell>
        <mxCell id="qKijBsGMD7tkdMQGyjHV-18" value="" style="endArrow=none;html=1;rounded=0;entryX=0;entryY=0.5;entryDx=0;entryDy=0;exitX=1;exitY=0.5;exitDx=0;exitDy=0;shape=link;" parent="1" source="ipskiCv4YRPe0tZs55r1-15" target="ipskiCv4YRPe0tZs55r1-14" edge="1">
          <mxGeometry width="50" height="50" relative="1" as="geometry">
            <mxPoint x="907.9999999999995" y="426" as="sourcePoint" />
            <mxPoint x="923.5" y="398" as="targetPoint" />
          </mxGeometry>
        </mxCell>
        <mxCell id="qKijBsGMD7tkdMQGyjHV-19" value="&lt;span style=&quot;text-align: left; text-wrap-mode: nowrap;&quot;&gt;&lt;u&gt;ID&lt;/u&gt;&lt;/span&gt;" style="ellipse;whiteSpace=wrap;html=1;" parent="1" vertex="1">
          <mxGeometry x="830.5" y="134.5" width="68" height="23" as="geometry" />
        </mxCell>
        <mxCell id="qKijBsGMD7tkdMQGyjHV-22" value="" style="endArrow=none;html=1;rounded=0;entryX=0.66;entryY=0.968;entryDx=0;entryDy=0;entryPerimeter=0;exitX=0.224;exitY=-0.001;exitDx=0;exitDy=0;exitPerimeter=0;" parent="1" source="qKijBsGMD7tkdMQGyjHV-19" target="ipskiCv4YRPe0tZs55r1-15" edge="1">
          <mxGeometry width="50" height="50" relative="1" as="geometry">
            <mxPoint x="848" y="144" as="sourcePoint" />
            <mxPoint x="848.9299999999998" y="426.75599999999986" as="targetPoint" />
          </mxGeometry>
        </mxCell>
        <mxCell id="qKijBsGMD7tkdMQGyjHV-24" value="&lt;u&gt;ID&lt;/u&gt;" style="ellipse;whiteSpace=wrap;html=1;" parent="1" vertex="1">
          <mxGeometry x="1451" y="-48" width="88" height="36" as="geometry" />
        </mxCell>
        <mxCell id="qKijBsGMD7tkdMQGyjHV-26" value="Quantity&amp;nbsp;" style="ellipse;whiteSpace=wrap;html=1;" parent="1" vertex="1">
          <mxGeometry x="1539" y="-35.5" width="88" height="36" as="geometry" />
        </mxCell>
        <mxCell id="qKijBsGMD7tkdMQGyjHV-27" value="UnitPrice" style="ellipse;whiteSpace=wrap;html=1;" parent="1" vertex="1">
          <mxGeometry x="1588" y="2.5" width="80" height="28" as="geometry" />
        </mxCell>
        <mxCell id="qKijBsGMD7tkdMQGyjHV-31" value="Has" style="rhombus;whiteSpace=wrap;html=1;" parent="1" vertex="1">
          <mxGeometry x="1288" y="68" width="96" height="56" as="geometry" />
        </mxCell>
        <mxCell id="qKijBsGMD7tkdMQGyjHV-32" value="" style="endArrow=none;html=1;rounded=0;exitX=1;exitY=0.5;exitDx=0;exitDy=0;entryX=0.03;entryY=0.39;entryDx=0;entryDy=0;entryPerimeter=0;" parent="1" source="qKijBsGMD7tkdMQGyjHV-1" target="gZLKV1CWDzT5GwPXtefE-39" edge="1">
          <mxGeometry width="50" height="50" relative="1" as="geometry">
            <mxPoint x="1288" y="147.5" as="sourcePoint" />
            <mxPoint x="1599.9999999999905" y="52.5" as="targetPoint" />
          </mxGeometry>
        </mxCell>
        <mxCell id="qKijBsGMD7tkdMQGyjHV-34" value="" style="endArrow=none;html=1;rounded=0;exitX=0.25;exitY=0;exitDx=0;exitDy=0;entryX=0.5;entryY=1;entryDx=0;entryDy=0;" parent="1" source="qKijBsGMD7tkdMQGyjHV-1" target="qKijBsGMD7tkdMQGyjHV-24" edge="1">
          <mxGeometry width="50" height="50" relative="1" as="geometry">
            <mxPoint x="1304" y="163.5" as="sourcePoint" />
            <mxPoint x="1390" y="49.5" as="targetPoint" />
          </mxGeometry>
        </mxCell>
        <mxCell id="qKijBsGMD7tkdMQGyjHV-35" value="" style="endArrow=none;html=1;rounded=0;exitX=1;exitY=0.5;exitDx=0;exitDy=0;entryX=0;entryY=0.75;entryDx=0;entryDy=0;" parent="1" source="qKijBsGMD7tkdMQGyjHV-31" target="qKijBsGMD7tkdMQGyjHV-1" edge="1">
          <mxGeometry width="50" height="50" relative="1" as="geometry">
            <mxPoint x="1008" y="145" as="sourcePoint" />
            <mxPoint x="1094" y="31" as="targetPoint" />
          </mxGeometry>
        </mxCell>
        <mxCell id="qKijBsGMD7tkdMQGyjHV-36" value="" style="endArrow=none;html=1;rounded=0;exitX=0.941;exitY=0.015;exitDx=0;exitDy=0;entryX=0;entryY=0.5;entryDx=0;entryDy=0;exitPerimeter=0;" parent="1" source="V3iPz4OHzq_g8O18MePr-28" target="qKijBsGMD7tkdMQGyjHV-31" edge="1">
          <mxGeometry width="50" height="50" relative="1" as="geometry">
            <mxPoint x="1016" y="153" as="sourcePoint" />
            <mxPoint x="1102" y="39" as="targetPoint" />
          </mxGeometry>
        </mxCell>
        <mxCell id="qKijBsGMD7tkdMQGyjHV-37" value="" style="endArrow=none;html=1;rounded=0;exitX=1;exitY=0.25;exitDx=0;exitDy=0;entryX=0;entryY=0.5;entryDx=0;entryDy=0;" parent="1" source="qKijBsGMD7tkdMQGyjHV-1" target="qKijBsGMD7tkdMQGyjHV-27" edge="1">
          <mxGeometry width="50" height="50" relative="1" as="geometry">
            <mxPoint x="1296" y="155.5" as="sourcePoint" />
            <mxPoint x="1382" y="41.5" as="targetPoint" />
          </mxGeometry>
        </mxCell>
        <mxCell id="qKijBsGMD7tkdMQGyjHV-38" value="" style="endArrow=none;html=1;rounded=0;exitX=0.75;exitY=0;exitDx=0;exitDy=0;entryX=0;entryY=0.5;entryDx=0;entryDy=0;" parent="1" source="qKijBsGMD7tkdMQGyjHV-1" target="qKijBsGMD7tkdMQGyjHV-26" edge="1">
          <mxGeometry width="50" height="50" relative="1" as="geometry">
            <mxPoint x="1304" y="163.5" as="sourcePoint" />
            <mxPoint x="1390" y="49.5" as="targetPoint" />
          </mxGeometry>
        </mxCell>
        <mxCell id="qKijBsGMD7tkdMQGyjHV-40" value="Add" style="rhombus;whiteSpace=wrap;html=1;" parent="1" vertex="1">
          <mxGeometry x="1072.25" y="157.5" width="96" height="56" as="geometry" />
        </mxCell>
        <mxCell id="qKijBsGMD7tkdMQGyjHV-42" value="" style="endArrow=none;html=1;rounded=0;exitX=0.5;exitY=0;exitDx=0;exitDy=0;entryX=0.5;entryY=1;entryDx=0;entryDy=0;" parent="1" source="qKijBsGMD7tkdMQGyjHV-40" target="ipskiCv4YRPe0tZs55r1-13" edge="1">
          <mxGeometry width="50" height="50" relative="1" as="geometry">
            <mxPoint x="1000" y="442" as="sourcePoint" />
            <mxPoint x="1031.52" y="62.65000000000009" as="targetPoint" />
          </mxGeometry>
        </mxCell>
        <mxCell id="qKijBsGMD7tkdMQGyjHV-43" value="" style="endArrow=none;html=1;rounded=0;exitX=0.681;exitY=0.031;exitDx=0;exitDy=0;entryX=0.5;entryY=1;entryDx=0;entryDy=0;exitPerimeter=0;" parent="1" source="V3iPz4OHzq_g8O18MePr-28" target="qKijBsGMD7tkdMQGyjHV-40" edge="1">
          <mxGeometry width="50" height="50" relative="1" as="geometry">
            <mxPoint x="1008" y="450" as="sourcePoint" />
            <mxPoint x="1094" y="336" as="targetPoint" />
          </mxGeometry>
        </mxCell>
        <mxCell id="qKijBsGMD7tkdMQGyjHV-45" value="" style="endArrow=none;html=1;rounded=0;entryX=1;entryY=0.5;entryDx=0;entryDy=0;exitX=0;exitY=0.5;exitDx=0;exitDy=0;shape=link;" parent="1" source="ipskiCv4YRPe0tZs55r1-13" target="ipskiCv4YRPe0tZs55r1-11" edge="1">
          <mxGeometry width="50" height="50" relative="1" as="geometry">
            <mxPoint x="964.75" y="41.5" as="sourcePoint" />
            <mxPoint x="796.8159999999998" y="47.167999999999665" as="targetPoint" />
          </mxGeometry>
        </mxCell>
        <mxCell id="qKijBsGMD7tkdMQGyjHV-46" value="" style="endArrow=none;html=1;rounded=0;entryX=0;entryY=0.5;entryDx=0;entryDy=0;exitX=1;exitY=0.75;exitDx=0;exitDy=0;" parent="1" source="V3iPz4OHzq_g8O18MePr-6" target="ipskiCv4YRPe0tZs55r1-11" edge="1">
          <mxGeometry width="50" height="50" relative="1" as="geometry">
            <mxPoint x="294" y="84" as="sourcePoint" />
            <mxPoint x="706" y="47" as="targetPoint" />
          </mxGeometry>
        </mxCell>
        <mxCell id="qKijBsGMD7tkdMQGyjHV-51" value="Rating" style="ellipse;whiteSpace=wrap;html=1;" parent="1" vertex="1">
          <mxGeometry x="1200" y="34.5" width="88" height="36" as="geometry" />
        </mxCell>
        <mxCell id="qKijBsGMD7tkdMQGyjHV-52" value="" style="endArrow=none;html=1;rounded=0;entryX=0;entryY=0.5;entryDx=0;entryDy=0;exitX=1;exitY=0.25;exitDx=0;exitDy=0;" parent="1" source="ipskiCv4YRPe0tZs55r1-13" edge="1">
          <mxGeometry width="50" height="50" relative="1" as="geometry">
            <mxPoint x="1157.0099999999998" y="65.89499999999998" as="sourcePoint" />
            <mxPoint x="1198.75" y="52.5" as="targetPoint" />
          </mxGeometry>
        </mxCell>
        <mxCell id="qKijBsGMD7tkdMQGyjHV-55" value="" style="endArrow=none;html=1;rounded=0;exitX=0.5;exitY=1;exitDx=0;exitDy=0;entryX=0;entryY=0.5;entryDx=0;entryDy=0;shape=link;" parent="1" source="gZLKV1CWDzT5GwPXtefE-1" target="gZLKV1CWDzT5GwPXtefE-3" edge="1">
          <mxGeometry width="50" height="50" relative="1" as="geometry">
            <mxPoint x="728" y="520" as="sourcePoint" />
            <mxPoint x="804.25" y="532.9999999999995" as="targetPoint" />
          </mxGeometry>
        </mxCell>
        <mxCell id="qKijBsGMD7tkdMQGyjHV-58" value="" style="endArrow=none;html=1;rounded=0;exitX=0;exitY=1;exitDx=0;exitDy=0;entryX=0.5;entryY=0;entryDx=0;entryDy=0;" parent="1" source="V3iPz4OHzq_g8O18MePr-28" target="gZLKV1CWDzT5GwPXtefE-2" edge="1">
          <mxGeometry width="50" height="50" relative="1" as="geometry">
            <mxPoint x="1078" y="320" as="sourcePoint" />
            <mxPoint x="1004" y="468" as="targetPoint" />
          </mxGeometry>
        </mxCell>
        <mxCell id="qKijBsGMD7tkdMQGyjHV-60" value="" style="endArrow=none;html=1;rounded=0;exitX=0.372;exitY=0.947;exitDx=0;exitDy=0;exitPerimeter=0;entryX=0.5;entryY=0;entryDx=0;entryDy=0;" parent="1" target="gZLKV1CWDzT5GwPXtefE-1" edge="1">
          <mxGeometry width="50" height="50" relative="1" as="geometry">
            <mxPoint x="690.1699999999996" y="288.7739999999999" as="sourcePoint" />
            <mxPoint x="728" y="464" as="targetPoint" />
          </mxGeometry>
        </mxCell>
        <mxCell id="qKijBsGMD7tkdMQGyjHV-62" value="" style="endArrow=none;html=1;rounded=0;exitX=0.068;exitY=0.414;exitDx=0;exitDy=0;entryX=1;entryY=0.25;entryDx=0;entryDy=0;exitPerimeter=0;shape=link;" parent="1" source="gZLKV1CWDzT5GwPXtefE-2" target="gZLKV1CWDzT5GwPXtefE-3" edge="1">
          <mxGeometry width="50" height="50" relative="1" as="geometry">
            <mxPoint x="956" y="496" as="sourcePoint" />
            <mxPoint x="914.25" y="522.5" as="targetPoint" />
          </mxGeometry>
        </mxCell>
        <mxCell id="qKijBsGMD7tkdMQGyjHV-63" value="&lt;u&gt;Payment ID&lt;/u&gt;" style="ellipse;whiteSpace=wrap;html=1;" parent="1" vertex="1">
          <mxGeometry x="718" y="492" width="88" height="36" as="geometry" />
        </mxCell>
        <mxCell id="qKijBsGMD7tkdMQGyjHV-66" value="Date" style="ellipse;whiteSpace=wrap;html=1;" parent="1" vertex="1">
          <mxGeometry x="727.5" y="552" width="122" height="32" as="geometry" />
        </mxCell>
        <mxCell id="qKijBsGMD7tkdMQGyjHV-67" value="Time" style="ellipse;whiteSpace=wrap;html=1;" parent="1" vertex="1">
          <mxGeometry x="806" y="524" width="106" height="32" as="geometry" />
        </mxCell>
        <mxCell id="qKijBsGMD7tkdMQGyjHV-68" value="&lt;span style=&quot;text-align: left; text-wrap-mode: nowrap;&quot;&gt;paymentMethod&lt;/span&gt;" style="ellipse;whiteSpace=wrap;html=1;" parent="1" vertex="1">
          <mxGeometry x="866.5" y="568" width="105.5" height="32" as="geometry" />
        </mxCell>
        <mxCell id="qKijBsGMD7tkdMQGyjHV-69" value="" style="endArrow=none;html=1;rounded=0;exitX=0.5;exitY=1;exitDx=0;exitDy=0;entryX=1;entryY=0.5;entryDx=0;entryDy=0;" parent="1" target="qKijBsGMD7tkdMQGyjHV-63" edge="1">
          <mxGeometry width="50" height="50" relative="1" as="geometry">
            <mxPoint x="873.25" y="466" as="sourcePoint" />
            <mxPoint x="749" y="524" as="targetPoint" />
          </mxGeometry>
        </mxCell>
        <mxCell id="qKijBsGMD7tkdMQGyjHV-72" value="" style="endArrow=none;html=1;rounded=0;exitX=0.5;exitY=1;exitDx=0;exitDy=0;entryX=0.5;entryY=0;entryDx=0;entryDy=0;" parent="1" target="qKijBsGMD7tkdMQGyjHV-66" edge="1">
          <mxGeometry width="50" height="50" relative="1" as="geometry">
            <mxPoint x="873.25" y="466" as="sourcePoint" />
            <mxPoint x="774" y="662" as="targetPoint" />
          </mxGeometry>
        </mxCell>
        <mxCell id="qKijBsGMD7tkdMQGyjHV-73" value="" style="endArrow=none;html=1;rounded=0;entryX=0.5;entryY=0;entryDx=0;entryDy=0;exitX=0.5;exitY=1;exitDx=0;exitDy=0;" parent="1" target="qKijBsGMD7tkdMQGyjHV-67" edge="1">
          <mxGeometry width="50" height="50" relative="1" as="geometry">
            <mxPoint x="873.25" y="466" as="sourcePoint" />
            <mxPoint x="781" y="556" as="targetPoint" />
          </mxGeometry>
        </mxCell>
        <mxCell id="qKijBsGMD7tkdMQGyjHV-74" value="" style="endArrow=none;html=1;rounded=0;exitX=0.5;exitY=1;exitDx=0;exitDy=0;entryX=0.624;entryY=0.024;entryDx=0;entryDy=0;entryPerimeter=0;" parent="1" target="qKijBsGMD7tkdMQGyjHV-68" edge="1">
          <mxGeometry width="50" height="50" relative="1" as="geometry">
            <mxPoint x="873.25" y="466" as="sourcePoint" />
            <mxPoint x="789" y="564" as="targetPoint" />
          </mxGeometry>
        </mxCell>
        <mxCell id="qKijBsGMD7tkdMQGyjHV-75" value="Amount" style="ellipse;whiteSpace=wrap;html=1;" parent="1" vertex="1">
          <mxGeometry x="936.5" y="536" width="88" height="32" as="geometry" />
        </mxCell>
        <mxCell id="qKijBsGMD7tkdMQGyjHV-77" value="PaymentStatus" style="ellipse;whiteSpace=wrap;html=1;" parent="1" vertex="1">
          <mxGeometry x="936" y="492" width="88.5" height="36" as="geometry" />
        </mxCell>
        <mxCell id="qKijBsGMD7tkdMQGyjHV-79" value="" style="endArrow=none;html=1;rounded=0;exitX=0.5;exitY=1;exitDx=0;exitDy=0;entryX=0;entryY=0.5;entryDx=0;entryDy=0;" parent="1" target="qKijBsGMD7tkdMQGyjHV-77" edge="1">
          <mxGeometry width="50" height="50" relative="1" as="geometry">
            <mxPoint x="873.25" y="466" as="sourcePoint" />
            <mxPoint x="962" y="644" as="targetPoint" />
          </mxGeometry>
        </mxCell>
        <mxCell id="qKijBsGMD7tkdMQGyjHV-80" value="PaymentStatus" style="ellipse;whiteSpace=wrap;html=1;" parent="1" vertex="1">
          <mxGeometry x="914.25" y="242" width="88.5" height="36" as="geometry" />
        </mxCell>
        <mxCell id="qKijBsGMD7tkdMQGyjHV-81" value="" style="endArrow=none;html=1;rounded=0;entryX=0;entryY=0.5;entryDx=0;entryDy=0;exitX=1;exitY=0.75;exitDx=0;exitDy=0;" parent="1" target="qKijBsGMD7tkdMQGyjHV-80" edge="1">
          <mxGeometry width="50" height="50" relative="1" as="geometry">
            <mxPoint x="759.25" y="280.5" as="sourcePoint" />
            <mxPoint x="856" y="242" as="targetPoint" />
          </mxGeometry>
        </mxCell>
        <mxCell id="zJPLUoGGlgRUSOMZxId0-10" value="UnitPrice" style="ellipse;whiteSpace=wrap;html=1;" parent="1" vertex="1">
          <mxGeometry x="118" y="216" width="120" height="40" as="geometry" />
        </mxCell>
        <mxCell id="zJPLUoGGlgRUSOMZxId0-13" value="" style="endArrow=none;html=1;rounded=0;entryX=1;entryY=0;entryDx=0;entryDy=0;exitX=0.5;exitY=1;exitDx=0;exitDy=0;" parent="1" source="V3iPz4OHzq_g8O18MePr-6" target="zJPLUoGGlgRUSOMZxId0-10" edge="1">
          <mxGeometry width="50" height="50" relative="1" as="geometry">
            <mxPoint x="243" y="384" as="sourcePoint" />
            <mxPoint x="292" y="370" as="targetPoint" />
          </mxGeometry>
        </mxCell>
        <mxCell id="zJPLUoGGlgRUSOMZxId0-14" value="" style="endArrow=none;html=1;rounded=0;entryX=0.8;entryY=0;entryDx=0;entryDy=0;exitX=0.576;exitY=1.09;exitDx=0;exitDy=0;entryPerimeter=0;exitPerimeter=0;" parent="1" source="V3iPz4OHzq_g8O18MePr-6" target="V3iPz4OHzq_g8O18MePr-18" edge="1">
          <mxGeometry width="50" height="50" relative="1" as="geometry">
            <mxPoint x="278.5" y="381.9199999999996" as="sourcePoint" />
            <mxPoint x="300" y="378" as="targetPoint" />
          </mxGeometry>
        </mxCell>
        <mxCell id="ipskiCv4YRPe0tZs55r1-1" value="Name" style="ellipse;shape=doubleEllipse;margin=3;whiteSpace=wrap;html=1;align=center;" parent="1" vertex="1">
          <mxGeometry x="1196" y="392" width="100" height="40" as="geometry" />
        </mxCell>
        <mxCell id="ipskiCv4YRPe0tZs55r1-2" value="TotalAmount" style="ellipse;whiteSpace=wrap;html=1;align=center;dashed=1;" parent="1" vertex="1">
          <mxGeometry x="435" y="360" width="98" height="32" as="geometry" />
        </mxCell>
        <mxCell id="ipskiCv4YRPe0tZs55r1-3" value="Comment" style="ellipse;whiteSpace=wrap;html=1;" parent="1" vertex="1">
          <mxGeometry x="1168.25" y="-5" width="88" height="36" as="geometry" />
        </mxCell>
        <mxCell id="ipskiCv4YRPe0tZs55r1-4" value="" style="endArrow=none;html=1;rounded=0;exitX=0;exitY=0.5;exitDx=0;exitDy=0;" parent="1" source="ipskiCv4YRPe0tZs55r1-3" target="ipskiCv4YRPe0tZs55r1-13" edge="1">
          <mxGeometry width="50" height="50" relative="1" as="geometry">
            <mxPoint x="1194.25" y="46.5" as="sourcePoint" />
            <mxPoint x="1169" y="64.5" as="targetPoint" />
          </mxGeometry>
        </mxCell>
        <mxCell id="ipskiCv4YRPe0tZs55r1-11" value="Add" style="shape=rhombus;double=1;perimeter=rhombusPerimeter;whiteSpace=wrap;html=1;align=center;" parent="1" vertex="1">
          <mxGeometry x="892" y="8" width="80" height="60" as="geometry" />
        </mxCell>
        <mxCell id="ipskiCv4YRPe0tZs55r1-13" value="Rating" style="shape=ext;margin=3;double=1;whiteSpace=wrap;html=1;align=center;" parent="1" vertex="1">
          <mxGeometry x="1064" y="65.5" width="100" height="40" as="geometry" />
        </mxCell>
        <mxCell id="ipskiCv4YRPe0tZs55r1-14" value="Has" style="shape=rhombus;double=1;perimeter=rhombusPerimeter;whiteSpace=wrap;html=1;align=center;" parent="1" vertex="1">
          <mxGeometry x="930.5" y="100" width="80" height="60" as="geometry" />
        </mxCell>
        <mxCell id="ipskiCv4YRPe0tZs55r1-15" value="Favourute" style="shape=ext;margin=3;double=1;whiteSpace=wrap;html=1;align=center;" parent="1" vertex="1">
          <mxGeometry x="746.5" y="76" width="100" height="40" as="geometry" />
        </mxCell>
        <mxCell id="ipskiCv4YRPe0tZs55r1-19" value="" style="endArrow=none;html=1;rounded=0;exitX=1;exitY=0.25;exitDx=0;exitDy=0;entryX=0;entryY=0.5;entryDx=0;entryDy=0;" parent="1" source="V3iPz4OHzq_g8O18MePr-28" target="L4g3V7WDwZazRwLvEy5d-10" edge="1">
          <mxGeometry width="50" height="50" relative="1" as="geometry">
            <mxPoint x="1160" y="288" as="sourcePoint" />
            <mxPoint x="1480" y="322" as="targetPoint" />
          </mxGeometry>
        </mxCell>
        <mxCell id="ipskiCv4YRPe0tZs55r1-27" value="Size" style="ellipse;shape=doubleEllipse;margin=3;whiteSpace=wrap;html=1;align=center;" parent="1" vertex="1">
          <mxGeometry x="236.25" y="-136" width="100" height="40" as="geometry" />
        </mxCell>
        <mxCell id="ipskiCv4YRPe0tZs55r1-28" value="Color" style="ellipse;whiteSpace=wrap;html=1;" parent="1" vertex="1">
          <mxGeometry x="-24" y="-26.5" width="104" height="32" as="geometry" />
        </mxCell>
        <mxCell id="ipskiCv4YRPe0tZs55r1-40" value="Phone_No" style="ellipse;shape=doubleEllipse;margin=3;whiteSpace=wrap;html=1;align=center;" parent="1" vertex="1">
          <mxGeometry x="433" y="-360" width="100" height="40" as="geometry" />
        </mxCell>
        <mxCell id="ipskiCv4YRPe0tZs55r1-41" value="" style="endArrow=none;html=1;rounded=0;exitX=1;exitY=1;exitDx=0;exitDy=0;entryX=0.105;entryY=-0.049;entryDx=0;entryDy=0;entryPerimeter=0;" parent="1" source="ipskiCv4YRPe0tZs55r1-40" target="V3iPz4OHzq_g8O18MePr-22" edge="1">
          <mxGeometry width="50" height="50" relative="1" as="geometry">
            <mxPoint x="528" y="-269" as="sourcePoint" />
            <mxPoint x="552" y="-232" as="targetPoint" />
          </mxGeometry>
        </mxCell>
        <mxCell id="ipskiCv4YRPe0tZs55r1-42" value="" style="endArrow=none;html=1;rounded=0;exitX=0.951;exitY=0.246;exitDx=0;exitDy=0;exitPerimeter=0;" parent="1" source="V3iPz4OHzq_g8O18MePr-47" edge="1">
          <mxGeometry width="50" height="50" relative="1" as="geometry">
            <mxPoint x="1339" y="256" as="sourcePoint" />
            <mxPoint x="1496" y="176" as="targetPoint" />
          </mxGeometry>
        </mxCell>
        <mxCell id="ipskiCv4YRPe0tZs55r1-43" value="Number" style="ellipse;whiteSpace=wrap;html=1;" parent="1" vertex="1">
          <mxGeometry x="1485" y="160" width="123" height="32" as="geometry" />
        </mxCell>
        <mxCell id="ipskiCv4YRPe0tZs55r1-44" value="Street&amp;nbsp;" style="ellipse;whiteSpace=wrap;html=1;" parent="1" vertex="1">
          <mxGeometry x="1470" y="192" width="123" height="32" as="geometry" />
        </mxCell>
        <mxCell id="ipskiCv4YRPe0tZs55r1-45" value="" style="endArrow=none;html=1;rounded=0;exitX=0.982;exitY=0.298;exitDx=0;exitDy=0;exitPerimeter=0;entryX=0;entryY=0.5;entryDx=0;entryDy=0;" parent="1" source="V3iPz4OHzq_g8O18MePr-47" target="ipskiCv4YRPe0tZs55r1-44" edge="1">
          <mxGeometry width="50" height="50" relative="1" as="geometry">
            <mxPoint x="1344" y="256" as="sourcePoint" />
            <mxPoint x="1504" y="184" as="targetPoint" />
          </mxGeometry>
        </mxCell>
        <mxCell id="ipskiCv4YRPe0tZs55r1-51" value="&lt;span&gt;&lt;/span&gt;&lt;span&gt;&lt;/span&gt;&lt;span style=&quot;white-space-collapse: preserve;&quot;&gt;Entery Date&lt;/span&gt;" style="ellipse;whiteSpace=wrap;html=1;" parent="1" vertex="1">
          <mxGeometry x="433" y="-219" width="88" height="36" as="geometry" />
        </mxCell>
        <mxCell id="ipskiCv4YRPe0tZs55r1-52" value="" style="endArrow=none;html=1;rounded=0;exitX=0.942;exitY=0.246;exitDx=0;exitDy=0;entryX=0;entryY=0.75;entryDx=0;entryDy=0;exitPerimeter=0;" parent="1" source="ipskiCv4YRPe0tZs55r1-51" target="V3iPz4OHzq_g8O18MePr-22" edge="1">
          <mxGeometry width="50" height="50" relative="1" as="geometry">
            <mxPoint x="510" y="-238" as="sourcePoint" />
            <mxPoint x="552" y="-214" as="targetPoint" />
          </mxGeometry>
        </mxCell>
        <mxCell id="ipskiCv4YRPe0tZs55r1-53" value="" style="endArrow=none;html=1;rounded=0;exitX=1;exitY=0.5;exitDx=0;exitDy=0;entryX=0;entryY=0.5;entryDx=0;entryDy=0;" parent="1" source="V3iPz4OHzq_g8O18MePr-6" target="ipskiCv4YRPe0tZs55r1-54" edge="1">
          <mxGeometry width="50" height="50" relative="1" as="geometry">
            <mxPoint x="286" y="87" as="sourcePoint" />
            <mxPoint x="1080" y="-56" as="targetPoint" />
            <Array as="points">
              <mxPoint x="872" y="-8" />
            </Array>
          </mxGeometry>
        </mxCell>
        <mxCell id="ipskiCv4YRPe0tZs55r1-54" value="Add" style="rhombus;whiteSpace=wrap;html=1;" parent="1" vertex="1">
          <mxGeometry x="1082.5" y="-94" width="96" height="56" as="geometry" />
        </mxCell>
        <mxCell id="ipskiCv4YRPe0tZs55r1-55" value="" style="endArrow=none;html=1;rounded=0;exitX=1;exitY=0.5;exitDx=0;exitDy=0;entryX=0;entryY=0.25;entryDx=0;entryDy=0;" parent="1" source="ipskiCv4YRPe0tZs55r1-54" target="qKijBsGMD7tkdMQGyjHV-1" edge="1">
          <mxGeometry width="50" height="50" relative="1" as="geometry">
            <mxPoint x="1392" y="104" as="sourcePoint" />
            <mxPoint x="1437" y="54" as="targetPoint" />
          </mxGeometry>
        </mxCell>
        <mxCell id="ipskiCv4YRPe0tZs55r1-60" value="&lt;font style=&quot;font-size: 18px;&quot;&gt;1&lt;/font&gt;" style="text;html=1;align=center;verticalAlign=middle;whiteSpace=wrap;rounded=0;" parent="1" vertex="1">
          <mxGeometry x="158" y="-350" width="60" height="30" as="geometry" />
        </mxCell>
        <mxCell id="ipskiCv4YRPe0tZs55r1-61" value="&lt;font style=&quot;font-size: 18px;&quot;&gt;M&lt;/font&gt;" style="text;html=1;align=center;verticalAlign=middle;whiteSpace=wrap;rounded=0;" parent="1" vertex="1">
          <mxGeometry x="200" y="-15.5" width="60" height="30" as="geometry" />
        </mxCell>
        <mxCell id="ipskiCv4YRPe0tZs55r1-65" value="&lt;font style=&quot;font-size: 18px;&quot;&gt;1&lt;/font&gt;" style="text;html=1;align=center;verticalAlign=middle;whiteSpace=wrap;rounded=0;" parent="1" vertex="1">
          <mxGeometry x="702" y="-136" width="60" height="30" as="geometry" />
        </mxCell>
        <mxCell id="ipskiCv4YRPe0tZs55r1-66" value="&lt;font style=&quot;font-size: 18px;&quot;&gt;M&lt;/font&gt;" style="text;html=1;align=center;verticalAlign=middle;whiteSpace=wrap;rounded=0;" parent="1" vertex="1">
          <mxGeometry x="636" y="-219" width="60" height="30" as="geometry" />
        </mxCell>
        <mxCell id="ipskiCv4YRPe0tZs55r1-67" value="&lt;font style=&quot;font-size: 18px;&quot;&gt;1&lt;/font&gt;" style="text;html=1;align=center;verticalAlign=middle;whiteSpace=wrap;rounded=0;" parent="1" vertex="1">
          <mxGeometry x="798" y="-142" width="60" height="30" as="geometry" />
        </mxCell>
        <mxCell id="ipskiCv4YRPe0tZs55r1-68" value="&lt;font style=&quot;font-size: 18px;&quot;&gt;M&lt;/font&gt;" style="text;html=1;align=center;verticalAlign=middle;whiteSpace=wrap;rounded=0;" parent="1" vertex="1">
          <mxGeometry x="960" y="-216" width="60" height="30" as="geometry" />
        </mxCell>
        <mxCell id="ipskiCv4YRPe0tZs55r1-69" value="&lt;font style=&quot;font-size: 18px;&quot;&gt;1&lt;/font&gt;" style="text;html=1;align=center;verticalAlign=middle;whiteSpace=wrap;rounded=0;" parent="1" vertex="1">
          <mxGeometry x="1392" y="56.5" width="60" height="30" as="geometry" />
        </mxCell>
        <mxCell id="ipskiCv4YRPe0tZs55r1-70" value="&lt;font style=&quot;font-size: 18px;&quot;&gt;1&lt;/font&gt;" style="text;html=1;align=center;verticalAlign=middle;whiteSpace=wrap;rounded=0;" parent="1" vertex="1">
          <mxGeometry x="1162.5" y="258" width="16" height="20" as="geometry" />
        </mxCell>
        <mxCell id="ipskiCv4YRPe0tZs55r1-74" value="&lt;font style=&quot;font-size: 18px;&quot;&gt;M&lt;/font&gt;" style="text;html=1;align=center;verticalAlign=middle;whiteSpace=wrap;rounded=0;" parent="1" vertex="1">
          <mxGeometry x="912" y="430" width="60" height="30" as="geometry" />
        </mxCell>
        <mxCell id="ipskiCv4YRPe0tZs55r1-75" value="&lt;font style=&quot;font-size: 18px;&quot;&gt;1&lt;/font&gt;" style="text;html=1;align=center;verticalAlign=middle;whiteSpace=wrap;rounded=0;" parent="1" vertex="1">
          <mxGeometry x="1052" y="322" width="60" height="30" as="geometry" />
        </mxCell>
        <mxCell id="ipskiCv4YRPe0tZs55r1-76" value="&lt;font style=&quot;font-size: 18px;&quot;&gt;1&lt;/font&gt;" style="text;html=1;align=center;verticalAlign=middle;whiteSpace=wrap;rounded=0;" parent="1" vertex="1">
          <mxGeometry x="780" y="442" width="60" height="30" as="geometry" />
        </mxCell>
        <mxCell id="ipskiCv4YRPe0tZs55r1-77" value="&lt;font style=&quot;font-size: 18px;&quot;&gt;M&lt;/font&gt;" style="text;html=1;align=center;verticalAlign=middle;whiteSpace=wrap;rounded=0;" parent="1" vertex="1">
          <mxGeometry x="674" y="294" width="60" height="30" as="geometry" />
        </mxCell>
        <mxCell id="ipskiCv4YRPe0tZs55r1-78" value="&lt;font style=&quot;font-size: 18px;&quot;&gt;1&lt;/font&gt;" style="text;html=1;align=center;verticalAlign=middle;whiteSpace=wrap;rounded=0;" parent="1" vertex="1">
          <mxGeometry x="1024" y="280" width="60" height="30" as="geometry" />
        </mxCell>
        <mxCell id="ipskiCv4YRPe0tZs55r1-79" value="&lt;font style=&quot;font-size: 18px;&quot;&gt;M&lt;/font&gt;" style="text;html=1;align=center;verticalAlign=middle;whiteSpace=wrap;rounded=0;" parent="1" vertex="1">
          <mxGeometry x="834.5" y="71" width="60" height="30" as="geometry" />
        </mxCell>
        <mxCell id="ipskiCv4YRPe0tZs55r1-80" value="&lt;font style=&quot;font-size: 18px;&quot;&gt;1&lt;/font&gt;" style="text;html=1;align=center;verticalAlign=middle;whiteSpace=wrap;rounded=0;" parent="1" vertex="1">
          <mxGeometry x="1115.12" y="254" width="25.75" height="19" as="geometry" />
        </mxCell>
        <mxCell id="ipskiCv4YRPe0tZs55r1-83" value="&lt;font style=&quot;font-size: 18px;&quot;&gt;M&lt;/font&gt;" style="text;html=1;align=center;verticalAlign=middle;whiteSpace=wrap;rounded=0;" parent="1" vertex="1">
          <mxGeometry x="1104" y="109" width="60" height="30" as="geometry" />
        </mxCell>
        <mxCell id="ipskiCv4YRPe0tZs55r1-84" value="&lt;font style=&quot;font-size: 18px;&quot;&gt;M&lt;/font&gt;" style="text;html=1;align=center;verticalAlign=middle;whiteSpace=wrap;rounded=0;" parent="1" vertex="1">
          <mxGeometry x="1022.5" y="40.5" width="60" height="30" as="geometry" />
        </mxCell>
        <mxCell id="ipskiCv4YRPe0tZs55r1-85" value="&lt;font style=&quot;font-size: 18px;&quot;&gt;1&lt;/font&gt;" style="text;html=1;align=center;verticalAlign=middle;whiteSpace=wrap;rounded=0;" parent="1" vertex="1">
          <mxGeometry x="238" y="100" width="60" height="30" as="geometry" />
        </mxCell>
        <mxCell id="ipskiCv4YRPe0tZs55r1-87" value="&lt;font style=&quot;font-size: 18px;&quot;&gt;M&lt;/font&gt;" style="text;html=1;align=center;verticalAlign=middle;whiteSpace=wrap;rounded=0;" parent="1" vertex="1">
          <mxGeometry x="265" y="26.5" width="60" height="30" as="geometry" />
        </mxCell>
        <mxCell id="ipskiCv4YRPe0tZs55r1-88" value="&lt;font style=&quot;font-size: 18px;&quot;&gt;M&lt;/font&gt;" style="text;html=1;align=center;verticalAlign=middle;whiteSpace=wrap;rounded=0;" parent="1" vertex="1">
          <mxGeometry x="1369" y="5.5" width="60" height="30" as="geometry" />
        </mxCell>
        <mxCell id="ipskiCv4YRPe0tZs55r1-89" value="&lt;font style=&quot;font-size: 18px;&quot;&gt;1&lt;/font&gt;" style="text;html=1;align=center;verticalAlign=middle;whiteSpace=wrap;rounded=0;" parent="1" vertex="1">
          <mxGeometry x="672" y="-105" width="60" height="30" as="geometry" />
        </mxCell>
        <mxCell id="L4g3V7WDwZazRwLvEy5d-1" value="Currier employee Id" style="ellipse;whiteSpace=wrap;html=1;" parent="1" vertex="1">
          <mxGeometry x="392" y="410" width="120" height="36" as="geometry" />
        </mxCell>
        <mxCell id="L4g3V7WDwZazRwLvEy5d-4" value="" style="endArrow=none;html=1;rounded=0;entryX=0.995;entryY=0.27;entryDx=0;entryDy=0;exitX=0;exitY=1;exitDx=0;exitDy=0;entryPerimeter=0;" parent="1" target="L4g3V7WDwZazRwLvEy5d-1" edge="1">
          <mxGeometry width="50" height="50" relative="1" as="geometry">
            <mxPoint x="649.2500000000005" y="291" as="sourcePoint" />
            <mxPoint x="527" y="373" as="targetPoint" />
          </mxGeometry>
        </mxCell>
        <mxCell id="L4g3V7WDwZazRwLvEy5d-5" value="" style="endArrow=none;html=1;rounded=0;entryX=0.925;entryY=0.256;entryDx=0;entryDy=0;exitX=0;exitY=1;exitDx=0;exitDy=0;entryPerimeter=0;" parent="1" target="gZLKV1CWDzT5GwPXtefE-40" edge="1">
          <mxGeometry width="50" height="50" relative="1" as="geometry">
            <mxPoint x="649.2500000000005" y="291" as="sourcePoint" />
            <mxPoint x="517.0537499999998" y="463.0799999999999" as="targetPoint" />
          </mxGeometry>
        </mxCell>
        <mxCell id="L4g3V7WDwZazRwLvEy5d-6" value="" style="endArrow=none;html=1;rounded=0;exitX=0.132;exitY=0.979;exitDx=0;exitDy=0;exitPerimeter=0;" parent="1" target="gZLKV1CWDzT5GwPXtefE-20" edge="1">
          <mxGeometry width="50" height="50" relative="1" as="geometry">
            <mxPoint x="663.77" y="290.11799999999994" as="sourcePoint" />
            <mxPoint x="526.2600000000002" y="497.39599999999973" as="targetPoint" />
          </mxGeometry>
        </mxCell>
        <mxCell id="L4g3V7WDwZazRwLvEy5d-10" value="Notification Details" style="ellipse;shape=doubleEllipse;margin=3;whiteSpace=wrap;html=1;align=center;" parent="1" vertex="1">
          <mxGeometry x="1429" y="294" width="136" height="40" as="geometry" />
        </mxCell>
        <mxCell id="B9aOX_zflv0vr0t4o1Av-1" value="Delivery Date" style="ellipse;whiteSpace=wrap;html=1;" parent="1" vertex="1">
          <mxGeometry x="466.25" y="264" width="94" height="36" as="geometry" />
        </mxCell>
        <mxCell id="B9aOX_zflv0vr0t4o1Av-6" value="Date" style="ellipse;whiteSpace=wrap;html=1;" parent="1" vertex="1">
          <mxGeometry x="1084" y="-315" width="88" height="32" as="geometry" />
        </mxCell>
        <mxCell id="B9aOX_zflv0vr0t4o1Av-7" value="" style="endArrow=none;html=1;rounded=0;exitX=0.023;exitY=0.76;exitDx=0;exitDy=0;entryX=0.643;entryY=-0.021;entryDx=0;entryDy=0;entryPerimeter=0;exitPerimeter=0;" parent="1" source="B9aOX_zflv0vr0t4o1Av-6" target="V3iPz4OHzq_g8O18MePr-60" edge="1">
          <mxGeometry width="50" height="50" relative="1" as="geometry">
            <mxPoint x="1042" y="-288" as="sourcePoint" />
            <mxPoint x="1083" y="-212" as="targetPoint" />
          </mxGeometry>
        </mxCell>
        <mxCell id="B9aOX_zflv0vr0t4o1Av-10" value="Name" style="ellipse;shape=doubleEllipse;margin=3;whiteSpace=wrap;html=1;align=center;" parent="1" vertex="1">
          <mxGeometry x="396" y="-264" width="100" height="40" as="geometry" />
        </mxCell>
        <mxCell id="B9aOX_zflv0vr0t4o1Av-11" value="F_Name" style="ellipse;whiteSpace=wrap;html=1;" parent="1" vertex="1">
          <mxGeometry x="284" y="-264" width="88" height="32" as="geometry" />
        </mxCell>
        <mxCell id="B9aOX_zflv0vr0t4o1Av-12" value="L_Name" style="ellipse;whiteSpace=wrap;html=1;" parent="1" vertex="1">
          <mxGeometry x="336.25" y="-312" width="88" height="32" as="geometry" />
        </mxCell>
        <mxCell id="B9aOX_zflv0vr0t4o1Av-13" value="" style="endArrow=none;html=1;rounded=0;exitX=0.967;exitY=0.47;exitDx=0;exitDy=0;exitPerimeter=0;entryX=0.002;entryY=0.376;entryDx=0;entryDy=0;entryPerimeter=0;" parent="1" source="B9aOX_zflv0vr0t4o1Av-11" target="B9aOX_zflv0vr0t4o1Av-10" edge="1">
          <mxGeometry width="50" height="50" relative="1" as="geometry">
            <mxPoint x="456" y="-219" as="sourcePoint" />
            <mxPoint x="312.6399999999999" y="-239.62400000000025" as="targetPoint" />
          </mxGeometry>
        </mxCell>
        <mxCell id="B9aOX_zflv0vr0t4o1Av-14" value="" style="endArrow=none;html=1;rounded=0;exitX=0.765;exitY=0.944;exitDx=0;exitDy=0;exitPerimeter=0;entryX=0.41;entryY=0.044;entryDx=0;entryDy=0;entryPerimeter=0;" parent="1" source="B9aOX_zflv0vr0t4o1Av-12" target="B9aOX_zflv0vr0t4o1Av-10" edge="1">
          <mxGeometry width="50" height="50" relative="1" as="geometry">
            <mxPoint x="368" y="-227" as="sourcePoint" />
            <mxPoint x="354.5279999999998" y="-239.14399999999978" as="targetPoint" />
          </mxGeometry>
        </mxCell>
        <mxCell id="B9aOX_zflv0vr0t4o1Av-17" value="" style="endArrow=none;html=1;rounded=0;entryX=0.028;entryY=0.341;entryDx=0;entryDy=0;entryPerimeter=0;exitX=0.464;exitY=0.977;exitDx=0;exitDy=0;exitPerimeter=0;" parent="1" target="qKijBsGMD7tkdMQGyjHV-75" edge="1">
          <mxGeometry width="50" height="50" relative="1" as="geometry">
            <mxPoint x="869.29" y="465.0340000000001" as="sourcePoint" />
            <mxPoint x="986" y="514" as="targetPoint" />
          </mxGeometry>
        </mxCell>
        <mxCell id="B9aOX_zflv0vr0t4o1Av-18" value="Availability Status" style="ellipse;whiteSpace=wrap;html=1;align=center;dashed=1;" parent="1" vertex="1">
          <mxGeometry x="-34" y="-67.5" width="128" height="32" as="geometry" />
        </mxCell>
        <mxCell id="B9aOX_zflv0vr0t4o1Av-19" value="FinalRating" style="ellipse;whiteSpace=wrap;html=1;align=center;dashed=1;" parent="1" vertex="1">
          <mxGeometry x="-2" y="-107" width="128" height="32" as="geometry" />
        </mxCell>
        <mxCell id="B9aOX_zflv0vr0t4o1Av-20" value="&lt;font style=&quot;font-size: 18px;&quot;&gt;M&lt;/font&gt;" style="text;html=1;align=center;verticalAlign=middle;whiteSpace=wrap;rounded=0;" parent="1" vertex="1">
          <mxGeometry x="600" y="224" width="60" height="30" as="geometry" />
        </mxCell>
        <mxCell id="gZLKV1CWDzT5GwPXtefE-1" value="Has" style="shape=rhombus;double=1;perimeter=rhombusPerimeter;whiteSpace=wrap;html=1;align=center;" vertex="1" parent="1">
          <mxGeometry x="710" y="346" width="80" height="60" as="geometry" />
        </mxCell>
        <mxCell id="gZLKV1CWDzT5GwPXtefE-2" value="Makes" style="shape=rhombus;double=1;perimeter=rhombusPerimeter;whiteSpace=wrap;html=1;align=center;" vertex="1" parent="1">
          <mxGeometry x="976" y="360" width="80" height="60" as="geometry" />
        </mxCell>
        <mxCell id="gZLKV1CWDzT5GwPXtefE-3" value="Payment" style="shape=ext;margin=3;double=1;whiteSpace=wrap;html=1;align=center;" vertex="1" parent="1">
          <mxGeometry x="826" y="430" width="100" height="40" as="geometry" />
        </mxCell>
        <mxCell id="gZLKV1CWDzT5GwPXtefE-4" value="Order" style="shape=ext;margin=3;double=1;whiteSpace=wrap;html=1;align=center;" vertex="1" parent="1">
          <mxGeometry x="648" y="251" width="112" height="45" as="geometry" />
        </mxCell>
        <mxCell id="gZLKV1CWDzT5GwPXtefE-5" value="Name" style="ellipse;shape=doubleEllipse;margin=3;whiteSpace=wrap;html=1;align=center;" vertex="1" parent="1">
          <mxGeometry x="760" y="-184" width="100" height="40" as="geometry" />
        </mxCell>
        <mxCell id="gZLKV1CWDzT5GwPXtefE-6" value="" style="endArrow=none;html=1;rounded=0;exitX=0.765;exitY=0.944;exitDx=0;exitDy=0;exitPerimeter=0;entryX=0.41;entryY=0.044;entryDx=0;entryDy=0;entryPerimeter=0;" edge="1" source="gZLKV1CWDzT5GwPXtefE-9" target="gZLKV1CWDzT5GwPXtefE-5" parent="1">
          <mxGeometry width="50" height="50" relative="1" as="geometry">
            <mxPoint x="718.5" y="-147" as="sourcePoint" />
            <mxPoint x="705.0279999999998" y="-159.14399999999978" as="targetPoint" />
          </mxGeometry>
        </mxCell>
        <mxCell id="gZLKV1CWDzT5GwPXtefE-7" value="" style="endArrow=none;html=1;rounded=0;exitX=0.5;exitY=1;exitDx=0;exitDy=0;entryX=0.618;entryY=0.036;entryDx=0;entryDy=0;entryPerimeter=0;" edge="1" source="gZLKV1CWDzT5GwPXtefE-8" target="gZLKV1CWDzT5GwPXtefE-5" parent="1">
          <mxGeometry width="50" height="50" relative="1" as="geometry">
            <mxPoint x="806.5" y="-139" as="sourcePoint" />
            <mxPoint x="663.1399999999999" y="-159.62400000000025" as="targetPoint" />
          </mxGeometry>
        </mxCell>
        <mxCell id="gZLKV1CWDzT5GwPXtefE-8" value="F_Name" style="ellipse;whiteSpace=wrap;html=1;" vertex="1" parent="1">
          <mxGeometry x="827.5" y="-236" width="88" height="32" as="geometry" />
        </mxCell>
        <mxCell id="gZLKV1CWDzT5GwPXtefE-9" value="L_Name" style="ellipse;whiteSpace=wrap;html=1;" vertex="1" parent="1">
          <mxGeometry x="732" y="-241" width="88" height="32" as="geometry" />
        </mxCell>
        <mxCell id="gZLKV1CWDzT5GwPXtefE-10" value="Wishlist Count" style="ellipse;whiteSpace=wrap;html=1;align=center;dashed=1;" vertex="1" parent="1">
          <mxGeometry x="-64" y="16.5" width="128" height="32" as="geometry" />
        </mxCell>
        <mxCell id="gZLKV1CWDzT5GwPXtefE-20" value="Currier employee&amp;nbsp;&lt;div&gt;Phone Num&lt;/div&gt;" style="ellipse;shape=doubleEllipse;margin=3;whiteSpace=wrap;html=1;align=center;" vertex="1" parent="1">
          <mxGeometry x="440" y="496" width="173.75" height="48" as="geometry" />
        </mxCell>
        <mxCell id="gZLKV1CWDzT5GwPXtefE-21" value="&lt;span style=&quot;text-align: left; text-wrap-mode: nowrap;&quot;&gt;&lt;u&gt;ratingID&lt;/u&gt;&lt;/span&gt;" style="ellipse;whiteSpace=wrap;html=1;" vertex="1" parent="1">
          <mxGeometry x="1070.25" y="-17" width="88" height="36" as="geometry" />
        </mxCell>
        <mxCell id="gZLKV1CWDzT5GwPXtefE-22" value="" style="endArrow=none;html=1;rounded=0;exitX=0.5;exitY=1;exitDx=0;exitDy=0;entryX=0.5;entryY=0;entryDx=0;entryDy=0;" edge="1" parent="1" source="gZLKV1CWDzT5GwPXtefE-21" target="ipskiCv4YRPe0tZs55r1-13">
          <mxGeometry width="50" height="50" relative="1" as="geometry">
            <mxPoint x="1176.75" y="21" as="sourcePoint" />
            <mxPoint x="1136.75" y="74" as="targetPoint" />
          </mxGeometry>
        </mxCell>
        <mxCell id="gZLKV1CWDzT5GwPXtefE-28" value="Has" style="shape=rhombus;double=1;perimeter=rhombusPerimeter;whiteSpace=wrap;html=1;align=center;" vertex="1" parent="1">
          <mxGeometry x="499.5" y="79" width="80" height="60" as="geometry" />
        </mxCell>
        <mxCell id="gZLKV1CWDzT5GwPXtefE-30" value="" style="endArrow=none;html=1;rounded=0;entryX=0.926;entryY=0.499;entryDx=0;entryDy=0;shape=link;entryPerimeter=0;" edge="1" parent="1" target="gZLKV1CWDzT5GwPXtefE-28">
          <mxGeometry width="50" height="50" relative="1" as="geometry">
            <mxPoint x="752" y="104" as="sourcePoint" />
            <mxPoint x="939" y="138" as="targetPoint" />
          </mxGeometry>
        </mxCell>
        <mxCell id="gZLKV1CWDzT5GwPXtefE-31" value="" style="endArrow=none;html=1;rounded=0;exitX=1;exitY=1;exitDx=0;exitDy=0;entryX=0.092;entryY=0.54;entryDx=0;entryDy=0;entryPerimeter=0;" edge="1" parent="1" source="V3iPz4OHzq_g8O18MePr-6" target="gZLKV1CWDzT5GwPXtefE-28">
          <mxGeometry width="50" height="50" relative="1" as="geometry">
            <mxPoint x="265" y="97" as="sourcePoint" />
            <mxPoint x="400" y="231" as="targetPoint" />
          </mxGeometry>
        </mxCell>
        <mxCell id="gZLKV1CWDzT5GwPXtefE-32" value="&lt;font style=&quot;font-size: 18px;&quot;&gt;M&lt;/font&gt;" style="text;html=1;align=center;verticalAlign=middle;whiteSpace=wrap;rounded=0;" vertex="1" parent="1">
          <mxGeometry x="698" y="81" width="60" height="30" as="geometry" />
        </mxCell>
        <mxCell id="gZLKV1CWDzT5GwPXtefE-33" value="&lt;font style=&quot;font-size: 18px;&quot;&gt;1&lt;/font&gt;" style="text;html=1;align=center;verticalAlign=middle;whiteSpace=wrap;rounded=0;" vertex="1" parent="1">
          <mxGeometry x="294.25" y="94" width="60" height="30" as="geometry" />
        </mxCell>
        <mxCell id="gZLKV1CWDzT5GwPXtefE-35" value="&lt;font style=&quot;font-size: 18px;&quot;&gt;1&lt;/font&gt;" style="text;html=1;align=center;verticalAlign=middle;whiteSpace=wrap;rounded=0;" vertex="1" parent="1">
          <mxGeometry x="336.25" y="66.5" width="60" height="30" as="geometry" />
        </mxCell>
        <mxCell id="gZLKV1CWDzT5GwPXtefE-36" value="&lt;font style=&quot;font-size: 18px;&quot;&gt;M&lt;/font&gt;" style="text;html=1;align=center;verticalAlign=middle;whiteSpace=wrap;rounded=0;" vertex="1" parent="1">
          <mxGeometry x="360" y="26.5" width="60" height="30" as="geometry" />
        </mxCell>
        <mxCell id="gZLKV1CWDzT5GwPXtefE-37" value="&lt;font style=&quot;font-size: 18px;&quot;&gt;1&lt;/font&gt;" style="text;html=1;align=center;verticalAlign=middle;whiteSpace=wrap;rounded=0;" vertex="1" parent="1">
          <mxGeometry x="1058.25" y="258" width="25.75" height="19" as="geometry" />
        </mxCell>
        <mxCell id="gZLKV1CWDzT5GwPXtefE-38" value="&lt;font style=&quot;font-size: 18px;&quot;&gt;M&lt;/font&gt;" style="text;html=1;align=center;verticalAlign=middle;whiteSpace=wrap;rounded=0;" vertex="1" parent="1">
          <mxGeometry x="738" y="290" width="60" height="30" as="geometry" />
        </mxCell>
        <mxCell id="gZLKV1CWDzT5GwPXtefE-39" value="Total Cost" style="ellipse;whiteSpace=wrap;html=1;align=center;dashed=1;" vertex="1" parent="1">
          <mxGeometry x="1588" y="39.5" width="128" height="32" as="geometry" />
        </mxCell>
        <mxCell id="gZLKV1CWDzT5GwPXtefE-40" value="Currier employee Name" style="ellipse;whiteSpace=wrap;html=1;" vertex="1" parent="1">
          <mxGeometry x="376" y="454" width="145" height="36" as="geometry" />
        </mxCell>
      </root>
    </mxGraphModel>
  </diagram>
</mxfile>
